<?xml version="1.0" encoding="utf-8"?>
<!-- Generator: Adobe Illustrator 27.5.0, SVG Export Plug-In . SVG Version: 6.00 Build 0)  -->
<svg version="1.1" xmlns="http://www.w3.org/2000/svg" xmlns:xlink="http://www.w3.org/1999/xlink" x="0px" y="0px"
	 viewBox="0 0 500 500" style="enable-background:new 0 0 500 500;" xml:space="preserve">
<g id="BACKGROUND">
</g>
<g id="OBJECTS">
	<g>
		<path style="opacity:0.28;fill:#FDCFAF;" d="M66.157,82.811h75.507c0.798-2.695,2.016-5.952,1.635-8.72
			c-0.381-2.768-2.074-5.547-4.916-6.661c-2.842-1.114-6.761,0.053-7.654,2.724c-1.635-7.371-5.328-14.665-11.899-19.307
			c-6.571-4.642-16.374-6.005-23.384-1.917c-7.01,4.088-9.263,14.109-3.402,19.465c-0.005-3.413-3.547-6.49-7.338-6.375
			c-3.791,0.114-7.095,3.397-6.847,6.803c1.232-3.714-3.43-7.466-7.688-6.885c-4.259,0.581-7.351,4.223-8.263,8.011
			C60.995,73.737,65.348,79.004,66.157,82.811z"/>
		<path style="opacity:0.28;fill:#FDCFAF;" d="M452.766,365.184H393.1c-0.63-2.13-1.593-4.703-1.292-6.891
			c0.301-2.187,1.639-4.383,3.884-5.264c2.246-0.88,5.343,0.042,6.048,2.152c1.292-5.824,4.21-11.588,9.402-15.256
			c5.192-3.668,12.939-4.745,18.478-1.515c5.54,3.23,7.32,11.149,2.688,15.382c0.004-2.697,2.803-5.128,5.799-5.038
			s5.607,2.685,5.41,5.376c-0.973-2.935,2.71-5.9,6.075-5.441c3.365,0.459,5.809,3.337,6.53,6.33
			C456.844,358.014,453.405,362.176,452.766,365.184z"/>
		<path style="opacity:0.28;fill:#FDCFAF;" d="M385.935,150.23h75.503c2.842,0,3.752-7.828,1.937-10.398
			c-1.815-2.57-5.156-3.078-7.827-1.939c-2.672,1.139-4.773,3.61-6.53,6.234c3.895-7.554,3.811-17.866-0.652-24.972
			s-13.229-10.199-20.093-6.599c-6.864,3.6-10.754,13.872-7.98,22.081c0.919-3.698-2.021-7.935-5.288-7.621
			c-3.267,0.313-5.583,5.055-4.166,8.528c-4.994-3.602-11.387-4.392-16.91-2.09C388.406,135.756,383.826,143.59,385.935,150.23z"/>
		<path style="opacity:0.28;fill:#FDCFAF;" d="M107.754,315.597H40.046c-2.51-1.396-1.878-6.58,0.616-8.006
			c2.493-1.425,5.744-0.581,8.076,1.095c-3.421-3.804-3.18-10.163,0.137-14.058c3.317-3.895,9.127-5.225,14.009-3.696
			c4.882,1.529,8.748,5.617,10.587,10.391c0.488-2.96,3.706-5.168,6.644-4.558c2.938,0.61,5.011,3.916,4.281,6.826
			c1.493-1.448,4.108-1.52,5.678-0.157c1.57,1.363,7.797,6.686,6.574,8.368c0.61-5.531,1.024-12.36,6.32-10.65
			C108.263,302.861,110.494,310.753,107.754,315.597z"/>
	</g>
	<g>
		<path style="opacity:0.28;fill:#FDCFAF;" d="M375.42,314.6c-2.34,6.42-1.67,13.01,0.64,19.47c2.9,8.15,8.41,16.1,13.73,23.23
			c2.72,3.64,5.46,7.51,7.86,11.52v0.01c6.03,10.06,9.91,20.98,5.8,31.24c-0.31,0.78-0.67,1.54-1.07,2.27
			c-0.51,0.95-1.09,1.86-1.73,2.73c-7.04,9.54-21.33,13.8-34.15,12.32c-8.33-0.96-16.57-3.79-24.07-7.52
			c-0.83-0.4-1.64-0.82-2.45-1.25c-6.87-3.66-9.96-8.76-15.62-13.42c-17.61-14.46-44.97-12.67-66.88-7.78c-0.01,0-0.01,0-0.01,0
			c-3.47,0.78-6.8,1.63-9.94,2.51c-18.39,5.16-34.83,13.04-53.76,15.99c-17.59,2.75-37.31,4.46-54.35-1.83
			c-4.68-1.73-9.03-4.28-12.51-7.7c-2.65-2.58-4.8-5.66-6.22-9.26c-3.43-8.69-2.91-18.08-1.18-27.21c0.84-4.4,1.95-8.74,3.05-12.91
			c4.6-17.48,8.26-36.71-1.29-53.26c-8.76-15.19-26.07-20.33-39.65-29.96c-14.56-10.32-24.58-26.63-25.18-43.58
			c-0.6-16.95,8.87-34.03,24.68-41.95c21.16-10.6,51.55-5.49,66.42-23.11c4.24-5.02,6.35-10.98,7.38-17.33
			c1.31-7.96,0.94-16.54,0.98-24.65c0-0.55,0.01-1.11,0.02-1.66c0.21-13.65,2.31-27.59,9.72-39.16
			c7.72-12.03,22.3-20.93,37.34-19.13c23.03,2.75,36.72,27.42,58.89,34.15c19.82,6.01,40.29-3.67,59.34-10.88
			c19.06-7.2,43.86-10.99,58.25,3.24c11.45,11.34,10.68,29.39,4.94,43.76c-4.14,10.36-10.38,19.86-15.37,29.85
			c-1.93,3.88-3.67,7.82-5.03,11.92c-4.72,14.27-3.31,32.16,9,41.76c0.35,0.28,0.7,0.54,1.07,0.8c12.48,8.8,30.1,6.37,44.37,12.23
			c11.05,4.53,19.58,14.29,22.12,25.31c2.55,11.01-0.96,22.99-9.1,31.05c-9.79,9.71-25.38,13.95-37.89,20.41
			c-0.89,0.46-1.76,0.93-2.61,1.41C383.91,302.22,378.13,307.16,375.42,314.6z"/>
		<path style="fill:#FDCFAF;" d="M397.107,220.403c-12.966-2.44-27.437-2.233-37.488-11.079
			c-9.702-8.539-12.177-23.243-10.676-36.356c1.501-13.113,6.258-25.593,8.469-38.597c2.211-13.004,1.444-27.589-6.733-37.704
			c-11.725-14.503-33.208-14.097-51.063-10.233c-17.855,3.864-36.91,9.846-53.733,2.534c-13.068-5.68-23.199-18.917-37.308-20.245
			c-13.486-1.269-25.733,9.339-32.04,21.778c-6.307,12.44-8.234,26.678-11.794,40.241c-3.56,13.563-9.482,27.475-20.919,35.003
			c-14.241,9.373-33.741,6.712-47.603,16.678c-11.941,8.585-16.794,26.345-10.973,40.16c7.518,17.843,28.25,25.373,40.396,39.955
			c1.116,1.016,2.169,2.044,3.141,3.074c13.124,13.921,17.332,31.666,15.935,50.383c-1.507,20.184-9.945,45.711,1.881,64.305
			c12.264,19.281,43.045,14.486,61.836,11.519c10.653-1.682,21.251-3.704,31.932-5.211c6.195-0.874,12.834-1.576,18.285,1.392
			c27.151,2.238,59.892,24.346,85.681,21.723c9.198-0.936,18.568-1.916,27.054-5.719c8.485-3.803,16.099-10.955,18.238-20.29
			c4.29-18.715-13.885-35.012-16.349-54.08c-1.761-13.63,4.849-27.073,13.5-37.487c8.651-10.414,19.397-18.744,28.359-28.871
			c4.484-5.067,8.689-11.06,8.97-17.934C424.664,231.677,410.073,222.843,397.107,220.403z"/>
		<path style="opacity:0.3;fill:#FDCFAF;" d="M213.81,336.16c-0.76,1.98-3.14,2.94-5.25,2.74c-2.12-0.2-4.03-1.3-5.86-2.37
			c-0.04,2.74,1.52,5.21,2.25,7.85c0.73,2.64,0.18,6.15-2.42,7.02c-1.3,0.45-2.74,0.06-4.04-0.4c-4.03-1.41-7.82-3.47-11.19-6.09
			c1.18,3.03-1.7,6.4-4.89,7c-3.2,0.6-6.41-0.69-9.41-1.96c-1.39,7.48-6.15,14.27-12.71,18.12c-5.3,3.11-11.7,4.26-17.77,3.3
			c-1.44-0.22-2.87-0.57-4.25-1.03c0.53,2.52-0.41,5.28-2.35,6.97c-1.95,1.68-4.82,2.2-7.24,1.31c2.32,2.94,3.25,6.92,2.48,10.58
			c-0.46,2.15-2.02,5.68-4.25,7.19c-2.65-2.58-4.8-5.66-6.22-9.26c-3.43-8.69-2.91-18.08-1.18-27.21
			c6.8-7.08,14.17-13.61,22.01-19.51c4.53-3.42,9.22-6.62,14.04-9.6c6.76-4.18,13.98-7.98,21.85-9.14
			c10.62-1.56,21.39,1.87,30.98,6.69c1.56,0.78,3.14,1.63,4.28,2.95S214.44,334.53,213.81,336.16z"/>
		<path style="opacity:0.3;fill:#FDCFAF;" d="M373,207.02c-1.62,0.31-3.59-0.48-5.02-0.99c-4.68-1.67-8.82-4.9-11.45-9.14
			c-3.86-6.24-4.3-14.47-1.12-21.09c-1.78-1.36-3.59-2.75-4.9-4.58c-0.42-0.59-0.79-1.23-1.06-1.9c-0.6-1.41-0.83-2.97-0.44-4.44
			c0.28-1.06,0.95-2.03,1.82-2.69c0.91-0.71,2.03-1.08,3.16-0.9c-0.94-0.27-1.85-0.63-2.72-1.06c-2.15-1.04-4.06-2.54-5.58-4.38
			c-0.59-0.72-1.14-1.55-1.18-2.48c-0.08-1.5,1.24-2.78,2.69-3.18c1.45-0.41,2.99-0.15,4.47,0.12c-1.9-1.6-3.53-4.26-2.37-6.45
			c0.66-1.25,2.09-1.95,3.5-2.06c1.01-0.08,2.02,0.11,3,0.4c0.38,0.12,0.75,0.25,1.12,0.38c3.13,1.14,6.11,2.82,8.42,5.22
			c1.56,1.62,2.75,3.51,3.69,5.54c-1.93,3.88-3.67,7.82-5.03,11.92C359.28,179.53,360.69,197.42,373,207.02z"/>
		<polygon style="fill:#FFFFFF;" points="307.367,374.485 357.223,357.117 313.962,347.636 370.853,346.615 394.134,290.602 
			389.323,343.623 417.041,331.944 396.963,354.21 420.43,373.428 392.476,367.776 404.495,409.753 375.22,374.176 354.5,396.328 
			362.643,367.439 		"/>
		<g>
			<defs>
				<path id="SVGID_1_" d="M101.715,371.853c-2.003-14.469,9.276-26.958,17.48-38.827c12.837-18.573,21.918-43.944,11.032-63.815
					c-10.589-19.328-36.398-26.256-44.981-46.627c-5.821-13.815-0.968-31.575,10.973-40.16c13.862-9.966,33.363-7.305,47.603-16.678
					c11.436-7.527,17.359-21.44,20.919-35.003c3.56-13.563,5.487-27.802,11.794-40.241c6.307-12.44,18.554-23.047,32.04-21.778
					c14.109,1.328,24.24,14.565,37.308,20.245c16.824,7.312,35.878,1.33,53.733-2.534c17.855-3.864,39.338-4.27,51.063,10.233
					c8.177,10.115,8.944,24.7,6.733,37.704c-2.211,13.004-6.968,25.484-8.469,38.597s0.974,27.817,10.676,36.356
					c10.051,8.846,24.522,8.639,37.488,11.079c12.966,2.44,27.557,11.274,26.998,24.941c-0.281,6.874-4.486,12.868-8.97,17.934
					c-8.962,10.127,22.301,90.168,18.011,108.884c-2.14,9.334-53.274,28.041-61.76,31.843c-8.485,3.803-17.855,4.783-27.054,5.719
					c-33.913,3.449-67.826,6.899-101.738,10.348c-25.094,2.552-50.46,5.089-75.652,2.462c-9.185-0.958-19.04-1.988-27.009-7.24
					c-6.515-4.294-13.736-8.386-18.635-14.516C115.4,393.4,102.83,379.905,101.715,371.853z"/>
			</defs>
			<clipPath id="SVGID_00000170996956934389359520000011234804424802878094_">
				<use xlink:href="#SVGID_1_"  style="overflow:visible;"/>
			</clipPath>
			<g style="opacity:0.3;clip-path:url(#SVGID_00000170996956934389359520000011234804424802878094_);">
				<g>
					<polygon style="fill:#FFFFFF;" points="318.06,295.054 288.131,262.678 316.868,296.444 					"/>
				</g>
				<g>
					<polygon style="fill:#FFFFFF;" points="327.814,131.257 301.199,98.882 326.623,132.648 					"/>
				</g>
				<g>
					<polygon style="fill:#FFFFFF;" points="389.236,266.617 362.62,234.242 388.044,268.008 					"/>
				</g>
				<g>
					<polygon style="fill:#FFFFFF;" points="186.218,277.555 159.602,245.179 185.026,278.945 					"/>
				</g>
				<g>
					<polygon style="fill:#FFFFFF;" points="360.147,412.557 333.532,380.181 358.955,413.947 					"/>
				</g>
				<g>
					<polygon style="fill:#FFFFFF;" points="270.698,372.802 244.082,340.426 269.506,374.192 					"/>
				</g>
				<g>
					<polygon style="fill:#FFFFFF;" points="155.573,304.472 128.958,272.096 154.382,305.863 					"/>
				</g>
				<g>
					<polygon style="fill:#FFFFFF;" points="106.294,228.275 79.678,195.899 105.102,229.665 					"/>
				</g>
				<g>
					<polygon style="fill:#FFFFFF;" points="348.717,241.591 334.813,227.091 347.525,242.981 					"/>
				</g>
				<g>
					<polygon style="fill:#FFFFFF;" points="397.975,230.07 384.072,215.571 396.784,231.461 					"/>
				</g>
				<g>
					<polygon style="fill:#FFFFFF;" points="341.694,97.603 327.79,83.104 340.502,98.994 					"/>
				</g>
				<g>
					<polygon style="fill:#FFFFFF;" points="341.261,171.057 319.81,147.818 340.103,172.447 					"/>
				</g>
				<g>
					<polygon style="fill:#FFFFFF;" points="311.477,316.779 297.573,302.28 310.285,318.17 					"/>
				</g>
				<g>
					<polygon style="fill:#FFFFFF;" points="331.999,413.649 318.095,399.15 330.807,415.04 					"/>
				</g>
				<g>
					<polygon style="fill:#FFFFFF;" points="189.598,296.656 175.695,282.157 188.407,298.047 					"/>
				</g>
				<g>
					<polygon style="fill:#FFFFFF;" points="247.575,322.332 233.671,307.832 246.383,323.722 					"/>
				</g>
				<g>
					<polygon style="fill:#FFFFFF;" points="102.22,196.44 88.316,181.94 101.028,197.83 					"/>
				</g>
				<g>
					<polygon style="fill:#FFFFFF;" points="176.54,132.203 162.636,117.704 175.348,133.594 					"/>
				</g>
				<g>
					<polygon style="fill:#FFFFFF;" points="215.613,76.81 201.709,62.31 214.421,78.2 					"/>
				</g>
				<g>
					<polygon style="fill:#FFFFFF;" points="214.05,120.033 190.215,94.41 212.858,121.423 					"/>
				</g>
				<g>
					<polygon style="fill:#FFFFFF;" points="209.283,267.809 195.379,253.309 208.091,269.199 					"/>
				</g>
				<g>
					<polygon style="fill:#FFFFFF;" points="203.899,209.004 183.36,187.723 202.708,210.395 					"/>
				</g>
				<g>
					<polygon style="fill:#FFFFFF;" points="166.215,373.823 152.311,359.323 165.023,375.213 					"/>
				</g>
				<g>
					<polygon style="fill:#FFFFFF;" points="209.283,383.408 182.667,351.032 208.091,384.798 					"/>
				</g>
			</g>
			<g style="clip-path:url(#SVGID_00000170996956934389359520000011234804424802878094_);enable-background:new    ;">
				<g>
					<polygon style="fill:#80013D;" points="375.514,304.308 368.955,307.95 390.128,262.212 396.687,258.571 					"/>
				</g>
				<g>
					<polygon style="fill:#80013D;" points="362.265,314.393 355.706,318.034 248.882,197.289 255.441,193.647 					"/>
				</g>
				<g>
					<polygon style="fill:#80013D;" points="420.691,369.91 414.132,373.552 310.491,330.184 317.05,326.542 					"/>
				</g>
				<g>
					<polygon style="fill:#80013D;" points="166.56,244.528 160.001,248.17 253.1,158.44 259.659,154.799 					"/>
				</g>
				<g>
					<polygon style="fill:#80013D;" points="72.935,102.224 66.376,105.866 93.552,58.91 100.111,55.268 					"/>
				</g>
				<g>
					<polygon style="fill:#80013D;" points="159.637,268.809 153.078,272.451 66.376,105.866 72.935,102.224 					"/>
				</g>
				<g>
					<polygon style="fill:#E80252;" points="100.111,55.268 166.56,244.528 259.659,154.799 375.514,304.308 396.687,258.571 
						420.691,369.91 317.05,326.542 362.265,314.393 255.441,193.647 159.637,268.809 72.935,102.224 					"/>
				</g>
				<g style="opacity:0.25;">
					<path style="fill:#FFDE4B;" d="M372.282,314.22c11.512,14.756,26.025,26.394,43.122,31.161l-18.716-86.811l-21.173,45.738
						l-28.708-37.047C352.523,284.277,361.589,300.515,372.282,314.22z"/>
					<path style="fill:#FFDE4B;" d="M293.506,207.603c0.639,11.854,2.561,23.637,5.41,35.186l37.263,42.119
						c-5.327-10.673-8.214-22.609-10.467-34.355c-0.865-4.51-1.666-9.001-2.321-13.508l-30.173-38.937
						C293.237,201.277,293.336,204.445,293.506,207.603z"/>
					<path style="fill:#FFDE4B;" d="M155.254,221.809c-0.462-4.114-0.804-8.212-0.993-12.31l-17.111-48.735
						c-1.532,6.446-2.664,12.976-3.346,19.584c-1.297,12.562-1.078,25.074-0.633,37.61l26.466,50.851l4.518-3.545
						C158.916,251.453,156.888,236.364,155.254,221.809z"/>
				</g>
			</g>
		</g>
		<path style="opacity:0.3;fill:#FDCFAF;" d="M194.23,98c-1.79,1.27-4.17,1.67-6.27,1.06c1.9,1.94,3.43,4.26,4.46,6.78
			c0.37,0.9,0.68,1.91,0.37,2.83c-0.46,1.39-2.08,1.99-3.52,2.21c-3.52,0.53-7.23-0.15-10.33-1.91c1.47,1.42,1.75,3.81,0.95,5.69
			c-0.8,1.88-2.52,3.27-4.42,4.01c-1.91,0.75-3.99,0.92-6.03,0.9c0.02,4.23-1.43,8.44-4.05,11.76c-1.48,1.88-7.2,7.05-10.47,6.49
			c1.31-7.96,0.94-16.54,0.98-24.65c0-0.55,0.01-1.11,0.02-1.66c0.06-0.2,0.12-0.4,0.19-0.6c1.65-4.93,3.82-9.83,7.46-13.54
			c3.36-3.42,7.84-5.63,12.51-6.7c4.68-1.07,9.55-1.04,14.31-0.41c1.28,0.18,2.57,0.4,3.7,1.02c1.13,0.62,2.07,1.72,2.19,3
			C196.42,95.76,195.44,97.14,194.23,98z"/>
	</g>
	<g>
		<ellipse style="opacity:0.28;fill:#FDCFAF;" cx="250" cy="443.876" rx="93.723" ry="13.493"/>
		<g>
			<g>
				<defs>
					<path id="XMLID_25_" d="M201.791,431.903c0,0-10.605,16.104-4.882,17.975c5.723,1.871,25.716-9.963,26.198-12.48
						c0.482-2.517-0.191-11.572-0.191-11.572l-20.064-0.367L201.791,431.903z"/>
				</defs>
				<use xlink:href="#XMLID_25_"  style="overflow:visible;fill:#3714A5;"/>
				<clipPath id="XMLID_00000101823902962229188110000000834465665466056625_">
					<use xlink:href="#XMLID_25_"  style="overflow:visible;"/>
				</clipPath>
				<path style="opacity:0.5;clip-path:url(#XMLID_00000101823902962229188110000000834465665466056625_);fill:#CFDAFF;" d="
					M204.657,448.343c-1.493,0.229-3.281,0.169-4.168-1.219c-0.688-1.076-0.613-2.553-0.35-3.84
					c1.467-7.184,6.957-10.121,11.302-11.053c3.747-0.803,9.465-0.821,12.117-0.72c0,0-0.013-1.551-0.006-2.359
					c0.005-0.569-0.306-1.035-0.749-1.307c-1.761-1.077-3.764-1.521-5.746-1.806c-3.321-0.478-6.686-0.548-10.016-0.207
					c-3.366,0.344-6.861,1.194-9.406,3.692c-2.133,2.092-3.355,5.093-4.686,7.911c-1.073,2.27-2.269,4.524-2.73,7.049
					c-0.462,2.525-0.034,5.448,1.704,7.136c1.266,1.23,3.012,1.618,4.675,1.647c2.959,0.053,5.874-0.882,8.562-2.26
					c0.843-0.432,6.941-3.645,6.605-4.628c-0.168-0.491-2.764,0.853-3.256,1.02C207.249,447.826,205.96,448.143,204.657,448.343z"/>
				<path style="clip-path:url(#XMLID_00000101823902962229188110000000834465665466056625_);fill:#210B69;" d="M202.128,448.137
					c-1.376,0.507-2.807,0.998-4.267,0.892c-1.46-0.106-2.967-0.96-3.408-2.376c-0.196,1.264,0.538,2.546,1.583,3.262
					c1.045,0.717,2.345,0.948,3.605,0.967c2.272,0.033,4.507-0.565,6.656-1.309c4.541-1.572,8.853-3.822,12.754-6.654
					c1.279-0.928,2.53-1.936,3.457-3.224c0.539-0.749,0.959-1.599,1.177-2.502c0.063-0.261,0.322-1.097,0.12-1.325
					c-0.298-0.337-0.74,0.337-0.976,0.557c-1.408,1.312-2.911,2.516-4.481,3.621c-3.174,2.236-6.61,4.066-10.145,5.639
					C206.208,446.574,204.177,447.382,202.128,448.137z"/>
				<path style="clip-path:url(#XMLID_00000101823902962229188110000000834465665466056625_);fill:#210B69;" d="M211.473,434.025
					c0.968-1.55,1.773-3.788,0.481-5.418c-1.282-1.618-4.133-1.38-5.889-0.922c-2.171,0.566-4.098,1.869-5.622,3.516
					c-1.781,1.924-3.031,4.229-3.948,6.683c-0.025,0.066,0.08,0.103,0.112,0.044c2.134-3.898,4.615-7.998,9.063-9.396
					c1.022-0.321,2.094-0.471,3.164-0.394c1.101,0.079,2.384,0.355,2.808,1.526c0.754,2.082-1.033,3.958-2.015,5.578
					c-0.824,1.36-1.812,4.399,0.166,5.307c0.268,0.123-1.417-0.721-0.025-3.428C210.311,436.067,210.855,435.015,211.473,434.025z"
					/>
			</g>
			<g>
				<defs>
					<path id="XMLID_24_" d="M301.418,431.126c0,0,11.504,15.474,5.897,17.668s-26.241-8.484-26.865-10.969
						c-0.624-2.485-0.468-11.564-0.468-11.564l20.01-1.508L301.418,431.126z"/>
				</defs>
				<use xlink:href="#XMLID_24_"  style="overflow:visible;fill:#3714A5;"/>
				<clipPath id="XMLID_00000018232236611940997180000000502905680304052665_">
					<use xlink:href="#XMLID_24_"  style="overflow:visible;"/>
				</clipPath>
				<path style="opacity:0.5;clip-path:url(#XMLID_00000018232236611940997180000000502905680304052665_);fill:#CFDAFF;" d="
					M305.625,446.995c-4.08-0.042-13.481-4.499-12.664-10.3c0.943-3.978,9.034-4.252,13.675-4.381
					c-4.787-5.259-14.371-5.77-21.371-5.576c-8.47,0.481-8.964,6.281-5.961,11.822c2.736,5.049,5.749,8.372,15.984,11.937
					c5.819,2.027,12.788,1.62,15.05-0.564c1.152-1.112,1.698-3.836-0.123-4.326C309.323,445.367,309.856,447.038,305.625,446.995z"
					/>
				<path style="clip-path:url(#XMLID_00000018232236611940997180000000502905680304052665_);fill:#210B69;" d="M302.005,447.352
					c1.402,0.428,2.859,0.837,4.311,0.648c1.452-0.189,2.908-1.127,3.267-2.566c0.267,1.25-0.392,2.572-1.395,3.347
					c-1.002,0.775-2.287,1.08-3.544,1.17c-2.266,0.163-4.532-0.307-6.72-0.928c-4.623-1.311-9.056-3.312-13.112-5.918
					c-1.329-0.854-2.636-1.789-3.635-3.022c-0.581-0.717-1.048-1.541-1.317-2.431c-0.078-0.257-0.383-1.077-0.195-1.316
					c0.278-0.353,0.758,0.295,1.006,0.501c1.48,1.229,3.049,2.346,4.68,3.361c3.296,2.051,6.831,3.683,10.449,5.053
					C297.843,446.024,299.916,446.715,302.005,447.352z"/>
				<path style="clip-path:url(#XMLID_00000018232236611940997180000000502905680304052665_);fill:#210B69;" d="M289.144,433.185
					c-1.055-1.492-1.986-3.681-0.789-5.382c1.188-1.688,4.047-1.613,5.827-1.256c2.2,0.442,4.198,1.633,5.813,3.19
					c1.888,1.82,3.266,4.049,4.322,6.448c0.029,0.065-0.074,0.108-0.11,0.051c-2.353-3.77-5.063-7.723-9.583-8.865
					c-1.039-0.263-2.118-0.351-3.181-0.213c-1.094,0.142-2.36,0.49-2.717,1.683c-0.635,2.121,1.257,3.893,2.329,5.455
					c0.9,1.311,2.059,4.289,0.136,5.308c-0.261,0.138,1.374-0.8-0.17-3.423C290.42,435.158,289.817,434.138,289.144,433.185z"/>
			</g>
			<g>
				<g>
					<defs>
						<path id="XMLID_23_" d="M286.461,294.78c9.298,54.991,15.644,109.885,16.109,136.78c-6.178,2.192-20.727,2.224-24.472,0.175
							c-0.34-17.446-17.417-79.61-20.786-99.175c-3.369-19.565-9.738-66.914-13.046-66.693c-3.308,0.221-6.301,31.011-7.061,61.367
							c-0.411,16.382-11.37,93.556-10.819,104.013c-4.877-0.223-17.361,1.813-25.522-1.846
							c-3.263-79.391,3.275-114.737,4.371-155.201c0.439-16.266,0.963-30.801,2.181-42.06c0.543-5.007,1.225-9.358,2.109-12.926
							c36.22-7.626,66.654-7.194,66.654-7.194c-0.018,0.22,1.347,12.602,2.096,24.968
							C278.999,248.888,283.349,276.377,286.461,294.78z"/>
					</defs>
					<use xlink:href="#XMLID_23_"  style="overflow:visible;fill:#210B69;"/>
					<clipPath id="XMLID_00000054267758157431610000000005731096778759344788_">
						<use xlink:href="#XMLID_23_"  style="overflow:visible;"/>
					</clipPath>
					<path style="opacity:0.5;clip-path:url(#XMLID_00000054267758157431610000000005731096778759344788_);fill:#210B69;" d="
						M217.323,236.151c1.51-6.361,5.629-12.243,8.214-18.213c-1.349-2.34-3.205-4.33-5.446-5.669
						c-5.17-3.088-12.125-2.401-16.505,1.835c-4.511,4.363-5.81,11.309-6.71,17.77c-7.742,55.583-4.429,112.227-1.098,168.364
						c0.655,11.041,1.016,11.739,1.671,22.78c0.249,4.193,0.17,10.069,2.105,12.849c1.935,2.781,5.392,0.687,5.949-3.74
						c1.373-10.897,6.971-57.267,7.208-76.176l0.395-31.514C213.295,309.275,214.155,249.499,217.323,236.151z"/>
					<path style="opacity:0.5;clip-path:url(#XMLID_00000054267758157431610000000005731096778759344788_);fill:#210B69;" d="
						M250.593,272.94c4.304,23.374,30.654,111.725,31.566,152.93c0.354,15.996-9.467,15.806-12.81,12.43
						c-3.343-3.376-4.528-8.38-5.362-13.161c-2.494-14.299-24.004-20.044-24.304-34.637c-0.395-19.177-0.319-38.38,0.228-57.585
						c0.54-18.966,2.749-38.056,2.966-56.988c0.021-1.807-1.233-6.885,0.368-8.301C246.228,264.989,249.044,264.527,250.593,272.94z
						"/>
				</g>
				<g>
					<g>
						<defs>
							<path id="XMLID_22_" d="M195.646,234.774c-2.086,0.406-4.208,0.878-6.023,1.985c-0.933,0.569-1.851,1.502-1.693,2.583
								c0.149,1.018,1.175,1.647,2.13,2.033c6.367,2.571,13.756,0.635,20.339,2.59c0.795,0.236,1.617,0.531,2.432,0.378
								c0.657-0.124,1.224-0.526,1.755-0.932c2.427-1.855,4.641-4.041,6.225-6.652c1.221-2.012,2.055-4.289,2.269-6.64
								c0.036-0.397,0.233-1.313,0.008-1.667c-0.317-0.498-0.731-0.112-1.191,0.091c-1.123,0.497-2.268,0.943-3.428,1.346
								c-4.692,1.634-9.589,2.564-14.473,3.41C201.212,233.78,198.421,234.234,195.646,234.774z"/>
						</defs>
						<use xlink:href="#XMLID_22_"  style="overflow:visible;fill:#FFFFFF;"/>
						<clipPath id="XMLID_00000110457000375108677870000014336360268799813306_">
							<use xlink:href="#XMLID_22_"  style="overflow:visible;"/>
						</clipPath>
						<path style="opacity:0.4;clip-path:url(#XMLID_00000110457000375108677870000014336360268799813306_);fill:#E6E9FF;" d="
							M223.079,233.312c0.322,1.147-0.13,2.353-0.575,3.458c-1.033,2.565-2.086,5.165-3.758,7.368
							c-1.672,2.203-4.068,3.999-6.813,4.337c-2.149,0.264-4.291-0.37-6.421-0.759c-3.162-0.577-6.399-0.613-9.582-1.063
							c-3.183-0.45-6.413-1.369-8.873-3.439c-0.985-0.829-1.864-1.911-2.004-3.19c-0.133-1.216,0.437-2.431,1.283-3.313
							c0.847-0.883,1.947-1.477,3.06-1.985c4.432-2.02,9.395-2.859,14.245-2.409c-2.304,0.96-9.537,2.891-9.417,4.344
							s10.401,0.721,14.006,1.213c0.357,0.049,0.798,0.175,0.851,0.531c0.077,0.518-0.686,0.665-1.204,0.594
							c-4.916-0.668-13.815-0.057-14.574,1.23c-0.76,1.287,4.617,1.37,7.39,1.554c3.873,0.257,7.812,0.175,11.564-0.822
							c3.752-0.997,7.325-2.967,9.758-5.992C222.433,234.451,222.771,233.907,223.079,233.312z"/>
					</g>
					<path style="fill:#3714A5;" d="M210.649,244.426c0,0,4.765-4.254,7.78-8.293s5.388-11.299,5.388-11.299l2.82,0.688
						c0,0-1.524,8.169-6.806,13.591c-5.281,5.421-8.084,7.258-8.084,7.258L210.649,244.426z"/>
				</g>
				<g>
					<g>
						<defs>
							<path id="XMLID_21_" d="M296.382,229.59c1.78,0.199,3.577,0.448,4.955,1.197c0.708,0.385,1.321,1.049,0.934,1.882
								c-0.365,0.785-1.428,1.32-2.372,1.665c-6.297,2.3-12.488,1.213-18.839,3.053c-0.767,0.222-3.033,0.908-3.985,0.416
								c-0.952-0.493-2.895-3.456-3.725-5.366c-0.639-1.472-1.639-5.232-1.091-6.047c0.548-0.815,1.613-0.299,1.979-0.168
								c0.895,0.32,1.822,0.6,2.771,0.847c3.84,0.999,8.024,1.45,12.215,1.838C291.613,229.126,294.014,229.325,296.382,229.59z"/>
						</defs>
						<use xlink:href="#XMLID_21_"  style="overflow:visible;fill:#FFFFFF;"/>
						<clipPath id="XMLID_00000181044933480534645080000007357010680284676537_">
							<use xlink:href="#XMLID_21_"  style="overflow:visible;"/>
						</clipPath>
						<path style="opacity:0.4;clip-path:url(#XMLID_00000181044933480534645080000007357010680284676537_);fill:#E6E9FF;" d="
							M272.115,229.416c-0.523,1.003-0.408,2.004-0.276,2.919c0.305,2.124,0.619,4.277,1.542,6.048
							c0.923,1.771,2.545,3.145,4.781,3.248c1.751,0.08,3.694-0.608,5.572-1.085c2.789-0.708,5.522-0.959,8.3-1.56
							c2.778-0.601,5.7-1.607,8.226-3.544c1.012-0.776,1.989-1.761,2.389-2.865c0.38-1.049,0.167-2.05-0.352-2.747
							c-0.519-0.698-1.314-1.132-2.139-1.49c-3.286-1.427-7.28-1.808-11.461-1.094c1.728,0.665,7.392,1.826,6.971,3.077
							c-0.421,1.251-8.914,1.323-12.057,1.989c-0.311,0.066-0.71,0.204-0.833,0.512c-0.179,0.448,0.431,0.522,0.883,0.426
							c4.285-0.905,11.642-0.986,11.998,0.063c0.357,1.049-4.188,1.486-6.563,1.832c-3.317,0.483-6.615,0.68-9.554,0.082
							c-2.939-0.598-5.513-2.041-6.896-4.463C272.408,230.346,272.243,229.904,272.115,229.416z"/>
					</g>
					<path style="fill:#3714A5;" d="M276.39,233.013c-2.042-3.975-3.437-8.635-3.437-8.635l-2.837,0.616
						c0,0,1.314,8.206,6.454,13.761C277.271,239.522,277.702,236.545,276.39,233.013z"/>
				</g>
				<g>
					<path d="M253.732,262.296c-1.212-0.035-2.485,0.193-3.7,0.419c-1.305,0.243-2.605,0.592-3.877,0.99
						c-2.48,0.778-4.876,1.803-7.075,3.134c-0.196,0.118-0.042,0.348,0.166,0.244c2.296-1.148,4.677-2.165,7.145-2.919
						c1.179-0.361,2.372-0.652,3.574-0.907c1.26-0.267,2.54-0.415,3.795-0.701C253.952,262.513,253.896,262.301,253.732,262.296z"/>
					<path d="M243.723,244.627c-0.057-1.886-0.132-3.772-0.225-5.657c-0.189-3.819-0.479-7.633-0.832-11.439
						c-0.015-0.157-0.242-0.153-0.23,0.007c0.302,3.809,0.525,7.624,0.693,11.443c0.083,1.885,0.147,3.771,0.193,5.658
						c0.047,1.927-0.029,3.885,0.146,5.804c0.02,0.214,0.29,0.2,0.306-0.009C243.92,248.516,243.78,246.549,243.723,244.627z"/>
					<path d="M247.11,237.794c-0.108-2.076-0.28-4.15-0.545-6.211c-0.264-2.049-0.493-4.207-1.063-6.188
						c-0.041-0.144-0.264-0.114-0.249,0.044c0.194,2.058,0.625,4.101,0.861,6.158c0.237,2.065,0.429,4.135,0.545,6.211
						c0.233,4.157,0.113,8.304-0.037,12.459c-0.004,0.122,0.186,0.147,0.201,0.023C247.326,246.157,247.327,241.952,247.11,237.794z
						"/>
				</g>
			</g>
		</g>
		<g>
			<g>
				<g>
					<defs>
						<path id="XMLID_20_" d="M315.213,223.586c0.478,1.365,0.691,2.859,0.354,4.265c-0.342,1.426-1.218,2.662-2.154,3.791
							c-0.882,1.063-1.852,2.08-3.045,2.777c-2.585,1.511-5.787,1.308-8.771,1.059c-0.198-0.017-0.422-0.047-0.539-0.207
							c-0.141-0.193-0.042-0.485,0.148-0.631c0.189-0.146,0.438-0.186,0.675-0.22c-0.467,0.234-0.956,0.473-1.477,0.469
							c-0.522-0.004-1.081-0.336-1.156-0.853c-0.105-0.716,0.676-1.199,1.294-1.576c2.044-1.243,3.441-3.493,3.649-5.876
							c0.043-0.493-0.068-1.133-0.552-1.236c-0.511-0.109-0.866,0.485-1.047,0.976c-0.621,1.683-1.242,3.365-1.863,5.048
							c-0.127,0.344-0.26,0.698-0.514,0.963c-0.254,0.264-0.663,0.416-0.996,0.263c-0.471-0.216-0.528-0.853-0.506-1.371
							c0.21-4.955,1.31-9.871,3.229-14.444c0.206-0.49,0.444-1.004,0.894-1.288c0.383-0.242,0.86-0.275,1.313-0.276
							c2.614-0.002,5.205,0.927,7.266,2.527C313.304,219.215,314.429,221.348,315.213,223.586z"/>
					</defs>
					<use xlink:href="#XMLID_20_"  style="overflow:visible;fill:#FF9681;"/>
					<clipPath id="XMLID_00000012474414990564460820000011730125609117165755_">
						<use xlink:href="#XMLID_20_"  style="overflow:visible;"/>
					</clipPath>
					<path style="opacity:0.3;clip-path:url(#XMLID_00000012474414990564460820000011730125609117165755_);fill:#FF9681;" d="
						M308.089,229.46c-1.129,1.62-2.258,3.24-3.388,4.861c1.291,0.117,2.577-0.39,3.632-1.144c1.054-0.755,1.913-1.746,2.76-2.727
						c-0.5,0.941-1,1.883-1.5,2.824c2.359-1.159,3.674-3.694,4.685-6.12c0.307-0.737,0.578-1.655,0.071-2.271
						c-0.308-0.374-0.812-0.507-1.235-0.743c-0.64-0.358-1.099-0.961-1.54-1.547c-1.667-2.219-3.334-4.438-5.001-6.657
						c-0.44-0.585-0.893-1.376-0.5-1.994c0.333-0.523,1.071-0.567,1.688-0.506c3.912,0.39,7.555,2.86,9.366,6.349
						s1.734,7.89-0.199,11.314c-1.789,3.17-4.953,5.361-8.298,6.795c-1.246,0.534-2.551,0.983-3.905,1.054
						c-1.354,0.071-2.771-0.273-3.79-1.167c-0.419-0.367-0.756-0.817-1.021-1.306c-0.301-0.556-0.545-0.87-0.081-1.236
						c0.803-0.635,2.2-0.917,3.119-1.45C304.801,232.716,306.851,231.237,308.089,229.46z"/>
				</g>
				<g>
					<defs>
						<path id="XMLID_19_" d="M305.802,179.599c-0.692-0.943-26.876-17.882-37.756-28.725c-7.741-7.715-6.126-20.195,2.244-22.595
							c13.959-4.002,56.1,43.722,57.308,47.19c3.671,10.538-8.131,42.403-8.23,44.739c-0.099,2.337-15.154-0.551-17.427-3.424
							C303.679,214.122,306.494,180.542,305.802,179.599z"/>
					</defs>
					<use xlink:href="#XMLID_19_"  style="overflow:visible;fill:#FFFFFF;"/>
					<clipPath id="XMLID_00000075140757306808622190000009640813887915527833_">
						<use xlink:href="#XMLID_19_"  style="overflow:visible;"/>
					</clipPath>
					<path style="opacity:0.6;clip-path:url(#XMLID_00000075140757306808622190000009640813887915527833_);fill:#E6E9FF;" d="
						M308.387,181.988c0.04-2.202,0.015-4.552-1.193-6.394c-0.844-1.286-2.168-2.166-3.455-3.009
						c-10.146-6.645-20.293-13.291-30.439-19.936c-0.814,4.757,1.7,9.511,4.98,13.052c3.28,3.541,7.348,6.27,10.704,9.738
						c7.084,7.322,10.603,17.945,9.288,28.048c-0.431,3.311-1.341,6.732-0.345,9.919c0.672,2.151,3.841,5.48,6.44,4.348
						c2.57-1.12,2.078-7.149,2.356-9.684C307.671,199.408,308.227,190.702,308.387,181.988z"/>
					<path style="clip-path:url(#XMLID_00000075140757306808622190000009640813887915527833_);fill:#C8D3FF;" d="M282.191,151.64
						c0.123-0.064,0.03-0.259-0.1-0.219c-1.499,0.473-2.719,1.405-3.656,2.662c-0.453,0.607-0.842,1.266-1.116,1.973
						c-0.137,0.355-0.252,0.718-0.34,1.088c-0.078,0.33-0.161,0.715-0.073,1.052c-0.004,0.006-0.008,0.011-0.012,0.017
						c-0.093,0.15,0.136,0.319,0.251,0.182c0.639-0.763,1.317-1.511,2.04-2.195c0.723-0.683,1.516-1.293,2.21-2.005
						c0.079-0.082-0.009-0.248-0.124-0.199c-0.936,0.403-1.74,1.089-2.454,1.805c-0.549,0.55-1.029,1.147-1.473,1.775
						c0.329-1.167,0.807-2.277,1.566-3.243C279.778,153.229,280.948,152.291,282.191,151.64z"/>
				</g>
				<path style="fill:#E6E9FF;" d="M300.682,212.755c-0.848,2.075-1.405,4.268-1.65,6.497c4.967,2.608,10.392,4.342,15.95,5.101
					c1.195,0.163,2.47,0.27,3.556-0.256c1.262-0.612,1.915-1.9,2.307-3.183c0.141-0.459,0.608-1.628,0.416-2.089
					c-0.277-0.67-1.427-0.722-2.079-0.904c-3.942-1.1-7.884-2.201-11.826-3.301C305.132,213.997,302.907,213.376,300.682,212.755z"
					/>
			</g>
			<g>
				<g>
					<defs>
						<path id="XMLID_17_" d="M208.478,197.938c0.081,8.52-9.113,18.896,0.169,23.127c9.281,4.232,29.155,3.859,39.314,4.141
							c9.562,0.265,24.572-0.681,29.563-5.032c4.991-4.35-3.436-8.026-3.077-29.205c0.381-22.473,7.069-57.787,0.026-62.666
							c-3.625-2.512-31.314-2.274-35.197-2.509c-3.883-0.235-39.173,2.854-43.747,8.275
							C186.898,144.299,208.293,178.507,208.478,197.938z"/>
					</defs>
					<use xlink:href="#XMLID_17_"  style="overflow:visible;fill:#FFFFFF;"/>
					<clipPath id="XMLID_00000011030436320791096280000018047117044390095757_">
						<use xlink:href="#XMLID_17_"  style="overflow:visible;"/>
					</clipPath>
					<path style="opacity:0.6;clip-path:url(#XMLID_00000011030436320791096280000018047117044390095757_);fill:#E6E9FF;" d="
						M205.056,167.929c-0.092-1.378-0.093-2.763-0.001-4.141c0.21-3.133-0.431-4.866-3.13-2.273
						c-1.881,1.807-3.755,4.587-3.677,7.306c0.26,5.27,2.002,10.336,3.127,15.491c1.933,8.85,2.045,18.093,0.329,26.987
						c-0.986,5.112-1.891,13.033,5.223,14.07c7.569,1.103,2.467-9.268,2.732-13.02c0.333-4.708,2.079-9.232,2.392-13.941
						c0.338-5.081-1-10.07-2.315-15.018c-0.81-3.048-2.631-5.746-3.511-8.799C205.6,172.42,205.207,170.182,205.056,167.929z"/>
					<g style="opacity:0.5;clip-path:url(#XMLID_00000011030436320791096280000018047117044390095757_);">
						<path id="XMLID_18_" style="opacity:0.6;fill:#E6E9FF;" d="M242.399,141.619c-1.79,0.051-3.232,1.254-2.878,6.81
							c0.118,1.844-2.743,47.842-3.433,54.514c-0.689,6.671,7.248,19.564,9.898,19.366c2.65-0.199,10.534-15.821,10.272-17.908
							c-0.262-2.087-7.746-47.44-9.733-55.56C244.875,142.099,243.87,141.577,242.399,141.619z"/>
						<path style="opacity:0.6;fill:#E6E9FF;" d="M240.253,143.802c0.532,0.449,1.142,0.861,1.845,0.877
							c1.168,0.027,2.159-1.011,2.978-1.964c0.737-0.858,1.526-1.856,1.478-2.968c-0.049-1.133-0.948-1.926-1.778-2.586
							c-1.055-0.839-2.314-1.722-3.658-1.335c-0.968,0.279-1.7,1.152-2.363,1.977C236.472,140.643,238.043,141.936,240.253,143.802z
							"/>
					</g>
					<path style="opacity:0.6;clip-path:url(#XMLID_00000011030436320791096280000018047117044390095757_);fill:#E6E9FF;" d="
						M226.246,130.273c-4.299,9.333,8.54,16.263,10.052,15.944c1.512-0.319,1.818-7.963,5.415-8.524
						c3.596-0.561,6.456,6.258,7.726,6.085s4.357-8.776-1.681-14.389C245.555,127.34,229.239,123.773,226.246,130.273z"/>
				</g>
				<g>
					<path style="fill:#E6E9FF;" d="M226.784,128.383c-4.299,9.333,8.54,16.263,10.052,15.944c1.512-0.319,1.818-7.963,5.415-8.524
						c3.596-0.561,6.456,6.258,7.726,6.085c1.27-0.173,4.358-8.776-1.681-14.389C246.093,125.45,229.778,121.884,226.784,128.383z"
						/>
					<path style="fill:#C8D3FF;" d="M226.784,128.383c-0.698,1.542-1.014,3.265-0.782,4.947c0.248,1.675,0.961,3.259,1.957,4.62
						c0.984,1.376,2.223,2.551,3.56,3.576c1.343,1.012,2.8,1.913,4.368,2.49c0.379,0.115,0.839,0.297,1.094,0.09
						c0.279-0.229,0.456-0.633,0.611-1.011c0.306-0.775,0.538-1.592,0.803-2.398c0.263-0.808,0.546-1.615,0.917-2.393
						c0.377-0.768,0.828-1.545,1.544-2.106c0.702-0.576,1.703-0.784,2.58-0.55c0.884,0.223,1.624,0.751,2.263,1.329
						c1.287,1.166,2.245,2.606,3.309,3.886c0.26,0.303,0.563,0.646,0.836,0.761c0.141,0.12,0.464-0.256,0.651-0.584
						c0.408-0.693,0.668-1.497,0.86-2.301c0.367-1.619,0.43-3.318,0.139-4.956c-0.285-1.638-0.922-3.217-1.899-4.57
						c-0.486-0.665-1.058-1.323-1.682-1.819c-0.684-0.448-1.481-0.757-2.272-1.033c-3.198-1.055-6.577-1.626-9.957-1.658
						c-1.687,0.007-3.394,0.154-5.009,0.664C229.084,125.856,227.504,126.809,226.784,128.383z M226.784,128.383
						c0.708-1.58,2.287-2.549,3.882-3.052c1.617-0.524,3.328-0.683,5.02-0.702c3.391-0.013,6.787,0.484,10.037,1.493
						c0.808,0.268,1.614,0.558,2.359,1.025c0.708,0.543,1.266,1.175,1.793,1.862c1.029,1.378,1.735,3.002,2.043,4.699
						c0.313,1.697,0.262,3.45-0.107,5.135c-0.196,0.84-0.452,1.672-0.899,2.445c-0.114,0.193-0.24,0.381-0.414,0.558
						c-0.086,0.087-0.188,0.174-0.333,0.239c-0.154,0.071-0.354,0.057-0.482,0.004c-0.51-0.228-0.757-0.58-1.052-0.902
						c-1.087-1.329-2.014-2.742-3.24-3.866c-0.604-0.557-1.292-1.043-2.059-1.24c-0.763-0.203-1.591-0.04-2.211,0.455
						c-1.253,1.025-1.837,2.71-2.399,4.271c-0.279,0.797-0.524,1.608-0.854,2.403c-0.176,0.39-0.341,0.805-0.723,1.117
						c-0.202,0.168-0.506,0.156-0.709,0.109c-0.218-0.045-0.425-0.111-0.628-0.184c-1.603-0.624-3.043-1.556-4.382-2.602
						c-1.331-1.054-2.546-2.267-3.523-3.657c-0.991-1.376-1.697-2.974-1.933-4.658C225.746,131.644,226.075,129.92,226.784,128.383z
						"/>
				</g>
				<g>
					<g>
						<defs>
							<path id="XMLID_16_" d="M243.029,141.124c-1.79,0.051-3.215,1.232-2.782,6.681c0.144,1.809-2.06,46.924-2.654,53.467
								c-0.594,6.544,7.531,19.184,10.179,18.988c2.648-0.196,10.312-15.523,10.02-17.569c-0.292-2.046-8.428-46.523-10.533-54.486
								C245.513,141.593,244.501,141.082,243.029,141.124z"/>
						</defs>
						<use xlink:href="#XMLID_16_"  style="overflow:visible;fill:#E80252;"/>
						<clipPath id="XMLID_00000173133235243350447350000008184583419809506229_">
							<use xlink:href="#XMLID_16_"  style="overflow:visible;"/>
						</clipPath>
						<g style="opacity:0.53;clip-path:url(#XMLID_00000173133235243350447350000008184583419809506229_);">
							<path style="fill:#FDCFAF;" d="M257.785,229.334c-1.219-0.507-2.413-0.743-3.617-1.083c-1.177-0.333-2.356-0.713-3.544-1.174
								c-2.375-0.923-4.758-2.124-7.091-3.573c-4.589-2.851-8.98-6.732-12.711-11.168c-2.118-2.518-4.035-5.198-5.804-7.95
								c-0.282-0.439-0.757-0.276-0.523,0.184c5.444,10.712,15.642,19.701,25.388,23.749c1.422,0.591,2.85,1.092,4.257,1.474
								c1.374,0.373,2.748,0.663,3.962,0.471C258.522,230.197,258.157,229.488,257.785,229.334z"/>
							<path style="opacity:0.5;fill:#FDCFAF;" d="M258.611,223.915c-1.219-0.507-2.413-0.743-3.617-1.084
								c-1.177-0.332-2.356-0.713-3.544-1.174c-2.375-0.923-4.758-2.124-7.091-3.573c-4.589-2.851-8.98-6.732-12.711-11.168
								c-2.118-2.518-4.035-5.198-5.804-7.95c-0.282-0.439-0.757-0.276-0.523,0.184c0.605,1.191,1.278,2.356,1.993,3.5
								c-0.635-0.911-1.257-1.83-1.856-2.761c-0.282-0.439-0.757-0.276-0.523,0.184c5.444,10.712,15.642,19.701,25.388,23.749
								c1.422,0.591,2.85,1.092,4.257,1.474c1.374,0.373,2.748,0.663,3.962,0.471c0.391-0.062,0.102-0.672-0.238-0.884
								c0.21-0.007,0.422-0.008,0.624-0.04C259.348,224.779,258.982,224.07,258.611,223.915z"/>
							<path style="fill:#FDCFAF;" d="M259.112,219.58c-1.219-0.507-2.413-0.743-3.617-1.083c-1.177-0.333-2.356-0.713-3.544-1.174
								c-2.375-0.923-4.758-2.124-7.091-3.573c-4.59-2.851-8.98-6.732-12.711-11.168c-2.118-2.518-4.035-5.198-5.804-7.95
								c-0.282-0.439-0.757-0.276-0.523,0.184c5.444,10.712,15.642,19.701,25.388,23.749c1.422,0.591,2.85,1.092,4.257,1.474
								c1.374,0.373,2.748,0.663,3.962,0.471C259.849,220.444,259.483,219.735,259.112,219.58z"/>
							<path style="opacity:0.5;fill:#FDCFAF;" d="M259.938,214.161c-1.219-0.507-2.413-0.743-3.617-1.083
								c-1.177-0.333-2.356-0.713-3.544-1.174c-2.375-0.923-4.758-2.124-7.091-3.573c-4.59-2.851-8.98-6.732-12.711-11.168
								c-2.118-2.518-4.035-5.198-5.804-7.95c-0.282-0.439-0.757-0.276-0.523,0.184c0.605,1.191,1.278,2.356,1.993,3.5
								c-0.635-0.911-1.257-1.83-1.856-2.761c-0.282-0.439-0.757-0.276-0.523,0.184c5.444,10.712,15.642,19.701,25.388,23.749
								c1.422,0.591,2.85,1.092,4.257,1.474c1.374,0.373,2.748,0.663,3.962,0.471c0.391-0.062,0.102-0.672-0.238-0.884
								c0.21-0.007,0.422-0.008,0.624-0.04C260.675,215.025,260.309,214.316,259.938,214.161z"/>
							<path style="fill:#FDCFAF;" d="M260.777,209.902c-1.219-0.507-2.413-0.743-3.617-1.084c-1.177-0.332-2.356-0.712-3.544-1.174
								c-2.375-0.923-4.758-2.124-7.091-3.573c-4.589-2.851-8.98-6.732-12.711-11.168c-2.118-2.518-4.035-5.199-5.804-7.95
								c-0.282-0.439-0.757-0.276-0.523,0.184c5.444,10.712,15.642,19.701,25.388,23.749c1.422,0.591,2.85,1.092,4.257,1.474
								c1.374,0.373,2.748,0.663,3.962,0.471C261.515,210.765,261.149,210.056,260.777,209.902z"/>
							<path style="opacity:0.5;fill:#FDCFAF;" d="M261.603,204.483c-1.219-0.507-2.413-0.743-3.617-1.083
								c-1.177-0.333-2.356-0.713-3.544-1.174c-2.375-0.923-4.758-2.124-7.091-3.573c-4.589-2.851-8.98-6.732-12.711-11.168
								c-2.118-2.518-4.035-5.199-5.804-7.95c-0.282-0.439-0.757-0.276-0.523,0.184c0.605,1.191,1.278,2.356,1.993,3.5
								c-0.635-0.911-1.257-1.83-1.856-2.761c-0.282-0.439-0.757-0.276-0.523,0.184c5.444,10.712,15.642,19.701,25.388,23.749
								c1.422,0.591,2.85,1.092,4.257,1.474c1.373,0.372,2.748,0.663,3.962,0.471c0.391-0.062,0.102-0.672-0.238-0.884
								c0.21-0.007,0.422-0.008,0.624-0.04C262.341,205.346,261.975,204.637,261.603,204.483z"/>
							<path style="fill:#FDCFAF;" d="M262.104,200.148c-1.219-0.507-2.413-0.743-3.617-1.084c-1.177-0.332-2.356-0.713-3.544-1.174
								c-2.375-0.923-4.758-2.124-7.091-3.573c-4.59-2.851-8.98-6.732-12.711-11.168c-2.118-2.518-4.035-5.199-5.804-7.95
								c-0.282-0.439-0.757-0.276-0.523,0.184c5.444,10.712,15.642,19.701,25.388,23.749c1.422,0.591,2.85,1.092,4.257,1.474
								c1.374,0.373,2.748,0.663,3.962,0.471C262.842,201.012,262.476,200.303,262.104,200.148z"/>
							<path style="opacity:0.5;fill:#FDCFAF;" d="M262.93,194.729c-1.219-0.507-2.413-0.743-3.617-1.084
								c-1.177-0.332-2.356-0.712-3.544-1.174c-2.375-0.923-4.758-2.124-7.091-3.573c-4.589-2.851-8.98-6.732-12.711-11.168
								c-2.118-2.518-4.035-5.199-5.804-7.95c-0.282-0.439-0.757-0.276-0.523,0.184c0.605,1.191,1.278,2.356,1.993,3.5
								c-0.635-0.911-1.257-1.83-1.856-2.761c-0.282-0.439-0.757-0.276-0.523,0.184c5.444,10.712,15.642,19.701,25.388,23.749
								c1.422,0.591,2.85,1.092,4.257,1.474c1.373,0.372,2.748,0.663,3.962,0.471c0.391-0.062,0.102-0.672-0.238-0.884
								c0.21-0.007,0.422-0.008,0.624-0.04C263.668,195.593,263.302,194.884,262.93,194.729z"/>
							<path style="fill:#FDCFAF;" d="M263.976,190.858c-1.219-0.507-2.413-0.743-3.617-1.084c-1.177-0.332-2.356-0.713-3.544-1.174
								c-2.375-0.923-4.758-2.124-7.091-3.573c-4.589-2.851-8.98-6.732-12.711-11.168c-2.118-2.518-4.035-5.198-5.804-7.95
								c-0.282-0.439-0.757-0.276-0.523,0.184c5.444,10.712,15.642,19.701,25.388,23.749c1.422,0.591,2.85,1.092,4.257,1.474
								c1.374,0.373,2.748,0.663,3.962,0.471C264.713,191.722,264.347,191.013,263.976,190.858z"/>
							<path style="opacity:0.5;fill:#FDCFAF;" d="M264.801,185.44c-1.219-0.507-2.413-0.743-3.617-1.084
								c-1.177-0.332-2.356-0.713-3.544-1.174c-2.375-0.923-4.758-2.124-7.091-3.573c-4.59-2.851-8.98-6.732-12.711-11.168
								c-2.118-2.518-4.035-5.198-5.804-7.95c-0.282-0.439-0.757-0.276-0.523,0.184c0.605,1.191,1.277,2.356,1.993,3.5
								c-0.635-0.911-1.257-1.83-1.856-2.761c-0.282-0.439-0.757-0.276-0.523,0.184c5.444,10.712,15.642,19.701,25.388,23.749
								c1.422,0.591,2.85,1.092,4.257,1.474c1.374,0.373,2.748,0.663,3.962,0.471c0.391-0.062,0.102-0.672-0.238-0.884
								c0.21-0.007,0.422-0.008,0.624-0.04C265.539,186.303,265.173,185.594,264.801,185.44z"/>
							<path style="fill:#FDCFAF;" d="M265.303,181.105c-1.219-0.507-2.413-0.743-3.617-1.084c-1.177-0.332-2.356-0.713-3.544-1.174
								c-2.375-0.923-4.758-2.124-7.091-3.573c-4.589-2.851-8.98-6.732-12.711-11.168c-2.118-2.518-4.035-5.198-5.804-7.95
								c-0.282-0.439-0.757-0.276-0.523,0.184c5.444,10.712,15.642,19.701,25.388,23.749c1.422,0.591,2.85,1.092,4.257,1.474
								c1.374,0.373,2.748,0.663,3.962,0.471C266.04,181.968,265.674,181.259,265.303,181.105z"/>
							<path style="opacity:0.5;fill:#FDCFAF;" d="M266.128,175.686c-1.219-0.507-2.413-0.743-3.617-1.083
								c-1.177-0.333-2.356-0.713-3.544-1.174c-2.375-0.923-4.758-2.124-7.091-3.573c-4.589-2.851-8.98-6.732-12.711-11.168
								c-2.118-2.518-4.035-5.198-5.804-7.95c-0.282-0.439-0.757-0.276-0.523,0.184c0.605,1.191,1.278,2.356,1.993,3.5
								c-0.635-0.911-1.257-1.83-1.856-2.761c-0.282-0.439-0.757-0.276-0.523,0.184c5.444,10.712,15.642,19.701,25.388,23.749
								c1.422,0.591,2.85,1.092,4.257,1.474c1.374,0.373,2.748,0.663,3.962,0.471c0.391-0.062,0.102-0.672-0.238-0.884
								c0.21-0.007,0.422-0.008,0.624-0.04C266.866,176.55,266.5,175.84,266.128,175.686z"/>
							<path style="fill:#FDCFAF;" d="M266.968,171.426c-1.219-0.507-2.413-0.743-3.617-1.084c-1.177-0.332-2.356-0.713-3.544-1.174
								c-2.375-0.923-4.758-2.124-7.091-3.573c-4.589-2.851-8.98-6.732-12.711-11.168c-2.118-2.518-4.035-5.199-5.804-7.95
								c-0.282-0.439-0.757-0.276-0.523,0.184c5.444,10.712,15.642,19.701,25.388,23.749c1.422,0.591,2.85,1.092,4.257,1.474
								c1.374,0.373,2.748,0.663,3.962,0.471C267.706,172.29,267.34,171.581,266.968,171.426z"/>
							<path style="opacity:0.5;fill:#FDCFAF;" d="M267.794,166.007c-1.219-0.507-2.413-0.743-3.617-1.083
								c-1.177-0.333-2.356-0.713-3.544-1.174c-2.375-0.923-4.758-2.124-7.091-3.573c-4.589-2.851-8.98-6.732-12.711-11.168
								c-2.118-2.518-4.035-5.199-5.804-7.95c-0.282-0.439-0.757-0.276-0.523,0.184c0.605,1.191,1.278,2.356,1.993,3.5
								c-0.635-0.911-1.257-1.83-1.856-2.761c-0.282-0.439-0.757-0.276-0.523,0.184c5.444,10.712,15.642,19.701,25.388,23.749
								c1.422,0.591,2.85,1.092,4.257,1.474c1.374,0.372,2.748,0.663,3.962,0.471c0.391-0.062,0.102-0.672-0.238-0.884
								c0.21-0.007,0.422-0.008,0.624-0.04C268.532,166.871,268.166,166.162,267.794,166.007z"/>
							<path style="fill:#FDCFAF;" d="M268.295,161.673c-1.219-0.507-2.413-0.743-3.617-1.084c-1.177-0.332-2.356-0.713-3.544-1.174
								c-2.375-0.923-4.758-2.124-7.091-3.573c-4.59-2.851-8.98-6.732-12.711-11.168c-2.118-2.518-4.035-5.199-5.804-7.95
								c-0.282-0.439-0.757-0.276-0.523,0.184c5.444,10.712,15.642,19.701,25.388,23.749c1.422,0.591,2.85,1.092,4.257,1.474
								c1.374,0.373,2.748,0.663,3.962,0.471C269.033,162.536,268.667,161.827,268.295,161.673z"/>
							<path style="opacity:0.5;fill:#FDCFAF;" d="M269.121,156.254c-1.219-0.507-2.413-0.743-3.617-1.084
								c-1.177-0.332-2.356-0.712-3.544-1.174c-2.375-0.923-4.758-2.124-7.091-3.573c-4.59-2.851-8.98-6.732-12.711-11.168
								c-2.118-2.518-4.035-5.198-5.804-7.95c-0.282-0.439-0.757-0.276-0.523,0.184c0.605,1.191,1.277,2.356,1.993,3.5
								c-0.634-0.911-1.257-1.83-1.856-2.761c-0.282-0.439-0.757-0.276-0.523,0.184c5.444,10.712,15.642,19.701,25.388,23.749
								c1.422,0.591,2.85,1.092,4.257,1.474c1.374,0.372,2.748,0.663,3.962,0.471c0.391-0.062,0.102-0.672-0.238-0.884
								c0.21-0.007,0.422-0.008,0.624-0.04C269.859,157.117,269.493,156.408,269.121,156.254z"/>
						</g>
					</g>
					<path style="fill:#E80252;" d="M240.914,143.265c0.539,0.44,1.155,0.844,1.858,0.859c1.169,0.026,2.145-0.992,2.951-1.928
						c0.725-0.842,1.5-1.821,1.436-2.912c-0.066-1.111-0.976-1.888-1.815-2.535c-1.068-0.823-2.34-1.688-3.678-1.308
						c-0.965,0.274-1.684,1.13-2.336,1.94C237.086,140.169,238.676,141.437,240.914,143.265z"/>
				</g>
				<g>
					<path style="fill:#FFFFFF;" d="M230.028,181.065l-6.187,0.568c-2.563,0.235-4.698-1.611-4.77-4.123l-0.328-11.524
						c-0.016-0.569,0.441-1.074,1.022-1.128l13.363-1.227c0.581-0.053,1.065,0.365,1.081,0.934l0.328,11.524
						C234.61,178.602,232.591,180.829,230.028,181.065z"/>
					<path style="opacity:0.6;fill:#E6E9FF;" d="M227.526,178.23c-4.698-1.584-7.072-8.108-7.114-13.431l-0.646,0.059
						c-0.581,0.053-1.038,0.558-1.022,1.128l0.328,11.524c0.072,2.512,2.207,4.358,4.77,4.123l6.187-0.568
						c2.563-0.235,4.582-2.463,4.511-4.975l-0.102-3.578C233.444,177.057,231.018,179.408,227.526,178.23z"/>
					<path style="fill:#C8D3FF;" d="M217.858,166.871c0,0,13.735-0.756,17.356-1.588l-0.273-3.181c0,0-3.074,0.816-8.622,1.156
						c-5.548,0.34-8.645,0.337-8.645,0.337L217.858,166.871z"/>
				</g>
			</g>
			<g>
				<g>
					<defs>
						<path id="XMLID_15_" d="M173.305,229.993c-0.513,1.352-0.765,2.84-0.464,4.255c0.305,1.434,1.149,2.693,2.056,3.845
							c0.854,1.085,1.798,2.127,2.972,2.855c2.546,1.577,5.752,1.456,8.741,1.284c0.199-0.011,0.423-0.036,0.544-0.193
							c0.146-0.189,0.054-0.484-0.131-0.635c-0.186-0.151-0.433-0.197-0.669-0.237c0.46,0.246,0.943,0.497,1.465,0.506
							c0.522,0.009,1.089-0.308,1.178-0.823c0.123-0.714-0.645-1.216-1.253-1.608c-2.011-1.295-3.35-3.58-3.497-5.968
							c-0.03-0.494,0.097-1.13,0.584-1.221c0.514-0.096,0.853,0.507,1.021,1.002c0.577,1.698,1.155,3.396,1.733,5.095
							c0.118,0.347,0.242,0.705,0.489,0.976c0.247,0.271,0.652,0.433,0.989,0.289c0.477-0.204,0.549-0.839,0.541-1.357
							c-0.083-4.959-1.055-9.902-2.857-14.522c-0.193-0.495-0.418-1.015-0.86-1.31c-0.377-0.252-0.852-0.298-1.306-0.309
							c-2.614-0.069-5.227,0.793-7.328,2.339C175.326,225.672,174.146,227.776,173.305,229.993z"/>
					</defs>
					<use xlink:href="#XMLID_15_"  style="overflow:visible;fill:#FF9681;"/>
					<clipPath id="XMLID_00000013186071085881547630000000418959594987735999_">
						<use xlink:href="#XMLID_15_"  style="overflow:visible;"/>
					</clipPath>
					<path style="opacity:0.3;clip-path:url(#XMLID_00000013186071085881547630000000418959594987735999_);fill:#FF9681;" d="
						M180.276,236.048c1.087,1.649,2.174,3.297,3.262,4.946c-1.294,0.084-2.566-0.456-3.601-1.237
						c-1.035-0.781-1.867-1.794-2.689-2.797c0.476,0.954,0.951,1.908,1.427,2.862c-2.328-1.219-3.578-3.787-4.526-6.238
						c-0.288-0.745-0.535-1.67-0.012-2.272c0.318-0.366,0.825-0.486,1.254-0.711c0.649-0.341,1.124-0.932,1.579-1.507
						c1.724-2.175,3.447-4.351,5.171-6.526c0.454-0.574,0.928-1.353,0.551-1.98c-0.319-0.531-1.056-0.595-1.674-0.549
						c-3.921,0.29-7.626,2.665-9.526,6.106c-1.9,3.441-1.936,7.843-0.092,11.315c1.707,3.215,4.813,5.486,8.121,7.006
						c1.232,0.566,2.525,1.048,3.877,1.154c1.351,0.105,2.777-0.202,3.818-1.069c0.428-0.357,0.777-0.797,1.054-1.279
						c0.315-0.548,0.567-0.855,0.113-1.234c-0.787-0.656-2.176-0.974-3.081-1.529C183.479,239.388,181.468,237.856,180.276,236.048z
						"/>
				</g>
				<g>
					<defs>
						<path id="XMLID_14_" d="M210.743,154.887c6.458-8.122,3.221-20.699-5.274-22.2c-3.445-0.609-5.97-1.518-10.848,2.551
							c-3.462,4.193-42.063,37.881-42.761,41.387c-2.12,10.654,16.796,48.152,17.213,50.457c0.416,2.304,15.882-2.707,17.695-5.693
							c-2.053-2.521-11.096-38.581-10.553-39.558C176.758,180.854,201.666,166.303,210.743,154.887z"/>
					</defs>
					<use xlink:href="#XMLID_14_"  style="overflow:visible;fill:#FFFFFF;"/>
					<clipPath id="XMLID_00000121254164472426252620000007827056563218141617_">
						<use xlink:href="#XMLID_14_"  style="overflow:visible;"/>
					</clipPath>
					<path style="opacity:0.6;clip-path:url(#XMLID_00000121254164472426252620000007827056563218141617_);fill:#E6E9FF;" d="
						M164.136,202.054c-3.304-8.085-5.374-17.246-2.521-25.501c1.824-5.275,5.485-9.68,9.072-13.956
						c8.637-10.295,17.274-20.591,25.911-30.886c-11.643,3.093-21.016,11.496-29.906,19.626c-7.926,7.25-16.189,15.02-19.269,25.311
						c-2.384,7.966-1.33,16.653,1.469,24.483c2.798,7.83,7.251,14.948,11.78,21.922c1.695,2.611,3.605,5.373,6.535,6.424
						c1.937,0.695,4.786,0.201,6.088-1.519c1.747-2.307-0.122-5.359-1.042-7.734C169.854,214.036,166.647,208.198,164.136,202.054z"
						/>
				</g>
				<path style="fill:#E6E9FF;" d="M186.997,217.446c0.965,2.023,1.646,4.182,2.018,6.392c-4.811,2.886-10.128,4.927-15.634,6
					c-1.184,0.231-2.451,0.41-3.565-0.054c-1.295-0.539-2.02-1.788-2.485-3.046c-0.166-0.45-0.699-1.59-0.534-2.062
					c0.239-0.684,1.384-0.803,2.024-1.021c3.873-1.323,7.746-2.646,11.619-3.969C182.625,218.939,184.811,218.193,186.997,217.446z"
					/>
				<path style="fill:#C8D3FF;" d="M211.802,156.837c0.134-0.103,0.012-0.308-0.141-0.226c-2.135,1.147-4.113,2.599-6.08,4.009
					c-0.988,0.708-1.964,1.43-2.93,2.167c-0.905,0.69-1.898,1.356-2.692,2.176c-0.116,0.12,0.041,0.304,0.181,0.222
					c0.48-0.282,0.936-0.613,1.385-0.956c0.625-0.275,1.233-0.598,1.849-0.888c0.79-0.372,1.593-0.715,2.408-1.03
					c1.61-0.623,3.271-1.08,4.905-1.63c0.131-0.044,0.108-0.275-0.041-0.252c-1.717,0.257-3.382,0.826-4.993,1.461
					c-0.792,0.312-1.572,0.652-2.341,1.016c-0.057,0.027-0.115,0.055-0.173,0.082c0.924-0.683,1.853-1.36,2.788-2.027
					C207.873,159.572,209.907,158.295,211.802,156.837z"/>
			</g>
		</g>
		<g>
			<g>
				<path style="fill:#FF9681;" d="M247.381,132.227c0.006-0.018,0.014-0.033,0.019-0.051l1.199-4.014l0.011,0.002l0.473-1.615
					l1.811-6.032l-17.83-3.553l-0.433,1.451l-0.555,1.856l-1.57,5.232l-0.454,1.511C229.888,135.191,244.789,137.18,247.381,132.227
					z"/>
				<path style="opacity:0.5;fill:#B82513;" d="M248.12,129.78l2.774-9.257l-17.831-3.56l-0.434,1.447
					C233.651,122.856,242.307,129.171,248.12,129.78z"/>
			</g>
			<g>
				<path style="fill:#210B69;" d="M278.012,89.546c-0.197-0.803-0.658-1.738-1.484-1.754c-0.685-0.014-1.184,0.631-1.517,1.23
					c-1.911,3.436-2.324,7.477-2.699,11.391c-0.051,0.531-0.101,1.075,0.037,1.59c0.783,2.923,3.59-1.428,4.18-2.463
					c1.089-1.91,1.727-4.08,1.832-6.276C278.422,92.017,278.31,90.76,278.012,89.546z"/>
				<g>
					<defs>
						<path id="XMLID_13_" d="M227.752,105.134c0.115,1.744,0.341,3.453,0.661,5.095c0.969,4.984,3.892,8.429,7.8,11.042
							c2.311,1.546,4.965,2.803,7.767,3.919c3.546,1.33,6.688,2.023,9.558,1.918c5.448-0.199,9.915-3.28,14.333-10.401
							c0.133-0.216,0.267-0.439,0.398-0.671l0.002-0.006c4.69-7.874,10.878-21.461,7.08-31.185
							c-4.862-14.719-23.754-20.8-36.217-11.419C230.706,80.04,226.948,93.406,227.752,105.134z"/>
					</defs>
					<use xlink:href="#XMLID_13_"  style="overflow:visible;fill:#FF9681;"/>
					<clipPath id="XMLID_00000001646758716032849700000013589610438257097602_">
						<use xlink:href="#XMLID_13_"  style="overflow:visible;"/>
					</clipPath>
					<path style="opacity:0.3;clip-path:url(#XMLID_00000001646758716032849700000013589610438257097602_);fill:#FF9681;" d="
						M234.915,117.067c-2.315-3.265-3.855-6.985-3.718-10.648c0.003-0.068,0.017-0.134,0.02-0.201
						c-0.11-3.378,0.484-6.793,1.266-9.196c2.426-7.447,8.066-14.508,15.255-18.006c9.028-4.393,18.378-0.749,27.432,2.569
						c2.157,0.791,4.272,1.671,6.246,2.785c1.569-1.444,2.621-3.258,2.773-5.281c0.261-3.483-2.171-7.005-5.468-9.349
						c-3.297-2.345-7.36-3.687-11.395-4.734c-6.356-1.65-12.947-2.687-19.401-2.375c-6.454,0.313-12.782,2.042-17.554,5.476
						c-5.527,3.978-8.623,9.96-10.145,16.125c-1.851,7.5-1.524,15.685,2.174,23.068c2.596,5.182,6.743,9.793,11.351,13.932
						c2.835,2.547,5.905,4.969,9.473,6.685c1.784,0.858,3.692,1.525,5.654,1.915c1.446,0.288,4.442,0.878,5.62,0.135
						c-3.935-1.391-7.596-2.577-11.081-4.853C240.038,122.906,237.11,120.163,234.915,117.067z"/>
					<path style="opacity:0.3;clip-path:url(#XMLID_00000001646758716032849700000013589610438257097602_);fill:#FF9681;" d="
						M263.494,108.281c-0.476,0.929-0.393,2.119,0.206,2.974c0.599,0.855,1.69,1.338,2.725,1.207c0.072-0.009,0.15-0.024,0.2-0.077
						c0.076-0.081,0.051-0.219-0.021-0.302c-0.073-0.084-0.179-0.128-0.28-0.173c-1.057-0.479-1.866-1.473-2.121-2.605
						c-0.04-0.178-0.09-0.388-0.26-0.454c-0.131-0.051-0.285,0.014-0.379,0.119c-0.094,0.105-0.141,0.243-0.185,0.376"/>
					<path style="opacity:0.3;clip-path:url(#XMLID_00000001646758716032849700000013589610438257097602_);fill:#FF9681;" d="
						M244.642,103.142c-0.774-0.254-1.787-1.217-1.579-1.532c0.209-0.316,1.253,0.168,1.865,0.319
						c0.762,0.188,1.443,0.091,2.235-0.003c0.444-0.053,0.989-0.124,0.993,0.399C248.163,103.382,245.375,103.382,244.642,103.142z"
						/>
					<path style="opacity:0.07;clip-path:url(#XMLID_00000001646758716032849700000013589610438257097602_);fill:#FF025A;" d="
						M232.398,103.732c-1.372,4.654,0.378,10.208,4.088,12.971c1.422,1.059,3.313,1.719,4.844,0.879
						c4.316-2.369,3.137-10.851,0.638-14.806C239.001,98.081,233.868,98.745,232.398,103.732z"/>
					<path style="opacity:0.07;clip-path:url(#XMLID_00000001646758716032849700000013589610438257097602_);fill:#FF025A;" d="
						M272.787,119.411c-1.474,4.623-6.037,8.24-10.658,8.447c-1.772,0.08-3.707-0.434-4.504-1.989
						c-2.245-4.382,3.487-10.744,7.775-12.617C270.489,111.029,274.367,114.458,272.787,119.411z"/>
				</g>
				<path style="fill:#210B69;" d="M248.536,95.511c0.971,0.338,2.044,0.495,3.104,0.453c1.076-0.042,2.112-0.289,2.988-0.707
					c0.614-0.294,2.052-0.981,2.562-2.33c0.175-0.461,0.068-0.96-0.279-1.301c-0.321-0.315-0.782-0.431-1.234-0.311
					c-0.409,0.109-0.744,0.306-1.013,0.464c-0.08,0.047-0.16,0.094-0.241,0.138c-0.293,0.156-0.6,0.291-0.915,0.405
					c-0.658,0.235-1.308,0.352-1.985,0.361c-0.655,0.008-1.311-0.101-2.006-0.333c-0.182-0.061-0.376-0.152-0.576-0.243
					c-0.626-0.287-1.406-0.643-2.233-0.466c-0.068,0.015-0.134,0.035-0.197,0.059c-0.233,0.09-0.434,0.246-0.578,0.453
					c-0.213,0.305-0.283,0.706-0.188,1.075C246.118,94.67,247.938,95.303,248.536,95.511z"/>
				<path style="fill:#210B69;" d="M265.619,99.78c0.206,0.826,0.588,1.668,1.104,2.434c0.508,0.756,1.135,1.421,1.812,1.924l0,0
					c0.417,0.309,1.686,1.249,2.684,0.771c0.254-0.122,0.444-0.376,0.508-0.678c0.043-0.205,0.03-0.425-0.036-0.633
					c-0.018-0.057-0.04-0.112-0.066-0.167c-0.316-0.665-0.908-1.024-1.383-1.312c-0.152-0.092-0.3-0.18-0.425-0.275
					c-0.48-0.365-0.871-0.765-1.194-1.223c-0.336-0.475-0.596-0.986-0.794-1.561c-0.095-0.276-0.174-0.559-0.233-0.84
					c-0.016-0.078-0.03-0.157-0.043-0.236c-0.047-0.268-0.106-0.602-0.25-0.942c-0.159-0.374-0.456-0.635-0.793-0.697
					c-0.365-0.068-0.699,0.112-0.871,0.469C265.139,97.854,265.475,99.204,265.619,99.78z"/>
				<g>
					<g>
						<path d="M265.85,108.687c-0.483,1.068-1.362,1.713-1.962,1.441c-0.6-0.272-0.696-1.358-0.212-2.425
							c0.483-1.068,1.362-1.713,1.962-1.441C266.238,106.533,266.333,107.619,265.85,108.687z"/>
					</g>
					<g>
						<path d="M248.879,100.978c-0.477,1.238-1.48,2.004-2.239,1.711c-0.76-0.293-0.988-1.534-0.511-2.772
							c0.477-1.238,1.48-2.004,2.239-1.711C249.128,98.499,249.357,99.74,248.879,100.978z"/>
					</g>
				</g>
				<path style="fill:#B82513;" d="M257.544,107.547c-0.03-0.325,0.142-0.72,0.225-1.029c0.079-0.29,0.161-0.58,0.247-0.868
					c0.191-0.64,0.398-1.276,0.612-1.909c0.2-0.594,0.475-1.244,0.473-1.877c-0.001-0.158-0.198-0.219-0.303-0.116
					c-0.747,0.733-1.083,2.059-1.39,3.03c-0.182,0.574-0.348,1.152-0.501,1.734c-0.129,0.495-0.298,1.024-0.089,1.521
					c0.148,0.351,0.444,0.587,0.729,0.822c0.472,0.389,0.652,0.763,0.473,1.387c-0.287,0.996-1.124,1.766-2.076,2.126
					c-0.247,0.093-0.134,0.431,0.118,0.385c0.935-0.171,1.733-0.71,2.266-1.498c0.533-0.788,0.809-1.908,0.12-2.688
					C258.177,108.262,257.585,107.995,257.544,107.547z"/>
				<path style="fill:#B82513;" d="M255.992,116.488c-0.808-1.529-2.213-2.591-3.78-3.267c-1.807-0.779-3.859-1.216-5.831-1.131
					c-0.161,0.007-0.167,0.217-0.028,0.267c1.769,0.63,3.67,0.812,5.417,1.523c1.493,0.608,2.899,1.535,3.912,2.802
					C255.826,116.863,256.104,116.7,255.992,116.488z"/>
				<g>
					<defs>
						<path id="XMLID_5_" d="M279.288,80.732c1.213,0.029,2.181-1.283,2.079-2.41c-0.102-1.127-0.954-2.024-1.884-2.698
							c-1.786-1.294-4.022-2.051-6.341-2.167c-0.364-0.074-0.738-0.147-1.126-0.217c2.316-3.471-6.965-3.839-12.207-6.785
							c-5.242-2.946-11.973-4.507-14.153-3.729c-2.18,0.778-1.708,1.152-1.917,1.451c-0.126-0.043-1.954-2.95-7.655,0.422
							c-5.264,3.113-8.358,14.717-9.54,23.287c0,0,5.787,1.489,6.887,2.14c1.1,0.651-2.256,7.33,0.584,8.649
							c2.84,1.318,3.343-10.216,8.346-12.988c6.805,1.346,5.385-5.484,10.477-7.063c0.675-0.209,1.591-0.147,2.279-0.145
							c0.707,0.002,1.409,0.051,2.1,0.153c1.242,0.184,2.432,0.543,3.549,1.038c2.132,0.945,3.948,2.347,5.859,3.602
							c0.467,0.307,0.969,0.652,1.493,0.98c0.091,0.249,0.191,0.494,0.311,0.73c0.752,1.477,2.071,2.661,3.677,3.302
							c0.574,0.229,1.243,0.388,1.851,0.15c0.002-0.001,0.003-0.002,0.005-0.003c0.121,0.266,0.244,0.519,0.386,0.729
							c1.132,1.718,5.995,4.526,8.569,1.114C285.49,86.864,282.031,82.42,279.288,80.732z"/>
					</defs>
					<use xlink:href="#XMLID_5_"  style="overflow:visible;fill:#210B69;"/>
					<clipPath id="XMLID_00000173121685565525160760000017832260362368202636_">
						<use xlink:href="#XMLID_5_"  style="overflow:visible;"/>
					</clipPath>
					<path style="clip-path:url(#XMLID_00000173121685565525160760000017832260362368202636_);fill:#210B69;" d="M228.333,75.543
						c0.076,0.539,0.394,1.064,0.891,1.286c1.242,0.554,2.539-0.95,3.892-0.814c1.067,0.107,1.769,1.217,1.929,2.277
						c0.159,1.06-0.054,2.143,0.027,3.212c0.081,1.069,0.584,2.236,1.601,2.574c0.565,0.188,1.182,0.084,1.759-0.063
						c3.297-0.835,6.224-3.041,7.933-5.982c0.569-0.978,0.963-2.333,0.18-3.15c-0.929-0.97-2.789-0.379-3.702-1.365
						c-1.035-1.118,0.111-3.107-0.698-4.397c-0.579-0.923-1.864-1.041-2.952-0.972c-1.088,0.069-2.306,0.186-3.143-0.512
						c-0.671-0.559-0.923-1.523-1.637-2.028c-0.66-0.467-1.579-0.418-2.312-0.078c-0.733,0.341-1.317,0.929-1.869,1.519
						c-0.896,0.957-1.774,1.979-2.225,3.21c-0.314,0.856-0.396,1.847-0.106,2.721c0.121,0.364,0.499,0.73,0.565,1.086
						C228.555,74.537,228.263,75.043,228.333,75.543z"/>
					<path style="clip-path:url(#XMLID_00000173121685565525160760000017832260362368202636_);fill:#210B69;" d="M257.571,74.111
						c-0.461-0.527-1.241-0.586-1.932-0.694c-0.692-0.108-1.485-0.417-1.638-1.1c-0.121-0.54,0.222-1.105,0.097-1.644
						c-0.127-0.547-0.693-0.879-1.239-1.009c-0.546-0.13-1.125-0.127-1.65-0.326c-0.525-0.2-1.006-0.702-0.916-1.256
						c0.162-0.999,1.922-1.283,1.787-2.286c-0.07-0.521-0.642-0.795-1.14-0.965c-1.187-0.403-2.398-0.735-3.626-0.992
						c-0.582-0.122-1.252-0.207-1.714,0.167c-0.668,0.54-0.433,1.6-0.096,2.391c1.14,2.677,2.769,5.143,4.772,7.252
						c1.374,1.447,3.471,4.277,5.757,3.447C257.102,76.708,258.621,75.313,257.571,74.111z"/>
				</g>
				<g>
					<path style="fill:#FFFFFF;" d="M247.557,79.321c0,0-2.483,4.952,0.191,4.876C250.423,84.121,247.557,79.321,247.557,79.321z"/>
					<path style="fill:#FFFFFF;" d="M243.52,83.957c0,0-2.483,4.952,0.191,4.876C246.386,88.757,243.52,83.957,243.52,83.957z"/>
				</g>
				<g>
					<path style="fill:#FF9681;" d="M230.634,99.903c-1.387,1.94-4.706,1.643-6.506-1.178c-1.8-2.821-1.58-9.35,1.347-11.912
						c2.927-2.562,6.797,0.403,7.151,4.806C232.893,94.944,231.716,98.391,230.634,99.903z"/>
					<path style="opacity:0.3;fill:#FF9681;" d="M230.634,99.903c-1.387,1.94-4.706,1.643-6.506-1.178
						c-1.8-2.821-1.58-9.35,1.347-11.912c2.927-2.562,6.797,0.403,7.151,4.806C232.893,94.944,231.716,98.391,230.634,99.903z"/>
					<path style="fill:#B82513;" d="M226.44,89.564c-0.06-0.145,0.056-0.337,0.203-0.328c0.641,0.038,1.146,0.693,1.516,1.204
						c0.407,0.562,0.744,1.21,0.963,1.903c0.444,1.404,0.496,3.062-0.038,4.534c-0.1,0.275-0.499,0.224-0.453-0.084
						c0.211-1.404,0.223-2.805-0.207-4.1c-0.058-0.174-0.137-0.336-0.207-0.502c-0.069,0.051-0.144,0.093-0.212,0.139
						c-0.122,0.083-0.247,0.162-0.368,0.247c-0.247,0.172-0.477,0.371-0.701,0.581c-0.454,0.425-0.824,0.958-1.303,1.347
						c-0.089,0.072-0.258,0.029-0.228-0.121c0.145-0.723,0.635-1.287,1.136-1.756c0.253-0.237,0.53-0.446,0.812-0.633
						c0.137-0.09,0.275-0.175,0.421-0.243c0.066-0.031,0.132-0.061,0.199-0.087c-0.122-0.227-0.248-0.451-0.397-0.658
						C227.224,90.52,226.68,90.142,226.44,89.564z"/>
				</g>
			</g>
		</g>
	</g>
	<g>
		<g>
			<g>
				<defs>
					<path id="XMLID_1_" d="M120.521,108.588c-3.254-1.323-6.807-2.082-10.291-1.638c-5.072,0.647-9.574,3.822-12.728,7.847
						c-3.153,4.025-5.103,8.855-6.669,13.723c-0.281,0.874-0.555,1.776-0.497,2.693c0.058,0.917,0.515,1.864,1.348,2.252
						c1.128,0.526,2.437-0.117,3.469-0.814c3.02-2.039,5.626-4.688,7.616-7.741c-0.917,3.498-1.842,7.105-1.363,10.69
						c0.165,1.233,0.644,2.616,1.811,3.046c1.48,0.545,2.949-0.773,3.923-2.014c2.843-3.622,5.138-7.673,6.785-11.972
						c-0.264,1.521-0.527,3.077-0.269,4.599c0.259,1.522,1.145,3.028,2.576,3.605c2.132,0.859,4.475-0.581,6.149-2.156
						c3.178-2.988,5.632-6.74,7.095-10.849c0.762-2.139,1.169-5.208-0.768-6.833C126.451,111.132,123.231,109.689,120.521,108.588z"
						/>
				</defs>
				<use xlink:href="#XMLID_1_"  style="overflow:visible;fill:#FFE8CC;"/>
				<clipPath id="XMLID_00000129919492960227725970000001192056277154566591_">
					<use xlink:href="#XMLID_1_"  style="overflow:visible;"/>
				</clipPath>
				<path style="opacity:0.86;clip-path:url(#XMLID_00000129919492960227725970000001192056277154566591_);fill:#FFE8CC;" d="
					M122.374,128.992c-3.586-0.303-6.765-3.297-7.284-6.858c-2.585,3.413-5.583,6.513-8.908,9.21
					c-1.081,0.877-2.582,1.743-3.771,1.018c-1.131-0.69-1.122-2.33-0.807-3.617c0.316-1.287,0.786-2.708,0.151-3.871
					c-0.722,3.477-5.124,5.616-8.304,4.036c-3.181-1.58-4.135-6.38-1.8-9.056c-4.101,6.809-3.591,16.408,2.005,22.052
					c4.319,4.356,10.969,5.887,17.023,4.901c6.054-0.987,11.552-4.229,16.189-8.245c2.221-1.924,4.332-4.114,5.419-6.845
					c0.648-1.627,1.508-8.79-1.889-7.141c-1.168,0.567-2.008,2.506-3.278,3.265C125.702,128.69,124.029,129.133,122.374,128.992z"/>
			</g>
			<g>
				<defs>
					<path id="XMLID_2_" d="M155.463,97.71c1.214-3.296,3.046-6.434,5.721-8.709c3.895-3.313,9.274-4.503,14.373-4.122
						s9.982,2.193,14.635,4.314c0.836,0.381,1.687,0.786,2.325,1.446c0.639,0.66,1.031,1.636,0.757,2.513
						c-0.371,1.188-1.729,1.723-2.938,2.016c-3.541,0.858-7.255,1.001-10.852,0.416c3.203,1.678,6.492,3.424,8.819,6.193
						c0.8,0.952,1.5,2.238,1.031,3.39c-0.594,1.461-2.558,1.659-4.131,1.543c-4.592-0.339-9.132-1.37-13.419-3.049
						c1.301,0.83,2.629,1.683,3.58,2.899c0.95,1.216,1.467,2.886,0.929,4.332c-0.802,2.154-3.444,2.916-5.735,3.093
						c-4.349,0.336-8.775-0.377-12.797-2.063c-2.094-0.878-4.637-2.644-4.533-5.17C153.349,103.807,154.452,100.456,155.463,97.71z"
						/>
				</defs>
				<use xlink:href="#XMLID_2_"  style="overflow:visible;fill:#FFE8CC;"/>
				<clipPath id="XMLID_00000010989032562416580480000017191272738205125311_">
					<use xlink:href="#XMLID_2_"  style="overflow:visible;"/>
				</clipPath>
				<path style="opacity:0.86;clip-path:url(#XMLID_00000010989032562416580480000017191272738205125311_);fill:#FFE8CC;" d="
					M169.297,112.824c2.191-2.855,2.12-7.221-0.162-10.003c4.264,0.388,8.574,0.26,12.807-0.381
					c1.377-0.209,3.028-0.734,3.292-2.101c0.251-1.301-0.966-2.399-2.13-3.032c-1.164-0.633-2.531-1.243-2.963-2.496
					c3.057,1.808,7.602-0.004,8.577-3.419c0.974-3.415-1.93-7.353-5.481-7.43c7.795,1.555,14.546,8.397,14.949,16.336
					c0.311,6.126-3.037,12.073-7.844,15.884c-4.807,3.811-10.907,5.69-16.999,6.412c-2.918,0.346-5.959,0.431-8.709-0.605
					c-1.639-0.618-7.513-4.806-4.006-6.206c1.206-0.482,3.205,0.203,4.621-0.224C166.832,115.08,168.286,114.142,169.297,112.824z"
					/>
			</g>
			<g>
				
					<ellipse transform="matrix(0.4339 -0.901 0.901 0.4339 -23.1474 196.6045)" style="fill:#FFDE4B;" cx="144.875" cy="116.722" rx="20.772" ry="20.772"/>
				<path style="opacity:0.12;fill:#FDA928;" d="M165.209,120.986c-1.438,6.806-6.254,12.736-13.27,15.272
					c-10.791,3.901-22.698-1.688-26.597-12.473c-1.778-4.919-1.586-10.069,0.178-14.586c-0.762,3.641-0.554,7.538,0.805,11.298
					c3.899,10.785,15.804,16.369,26.595,12.468C158.781,130.845,163.106,126.362,165.209,120.986z"/>
				<path style="fill:#FDA928;" d="M160.266,111.158c3.073,8.5-1.327,17.882-9.827,20.954s-17.882-1.327-20.954-9.827
					s1.327-17.882,9.827-20.954S157.193,102.658,160.266,111.158z"/>
				<g style="opacity:0.4;">
					<path style="fill:#FFDE4B;" d="M144.399,110.788c1.886-3.164,3.728-6.398,5.652-9.579c-1.217-0.406-2.481-0.68-3.773-0.792
						c-4.75,8.648-9.28,17.557-14.814,25.685c0.763,1.092,1.649,2.071,2.63,2.928C137.816,123.135,140.83,116.774,144.399,110.788z"
						/>
					<path style="fill:#FFDE4B;" d="M151.966,110.43c1.113-2.099,2.243-4.19,3.377-6.277c-1.148-0.952-2.417-1.745-3.77-2.352
						c-2.269,3.674-4.63,7.299-6.832,10.978c-3.328,5.56-6.239,11.476-10.078,16.713c1.968,1.571,4.277,2.666,6.732,3.208
						C144.222,125.014,148.137,117.649,151.966,110.43z"/>
					<path style="fill:#FFDE4B;" d="M148.577,128.942c2.36-5.019,5.353-9.867,7.871-14.712c0.92-1.77,1.82-3.589,2.759-5.395
						c-0.26-0.472-0.534-0.932-0.834-1.37c-1.223,2.227-2.439,4.457-3.647,6.692c-2.196,4.061-4.358,8.152-6.646,12.161
						c-1.237,2.167-2.4,4.707-4.014,6.747c0.856,0.044,1.721,0.009,2.589-0.086C147.193,131.589,147.852,130.25,148.577,128.942z"/>
				</g>
				<path style="opacity:0.5;fill:#FDA928;" d="M150.357,128.905c-1.176,0.425-2.469-0.148-2.944-1.306l-0.037-0.09
					c-2.655,0.267-5.147-0.818-6.53-2.908c-0.708-1.07-0.414-2.517,0.656-3.226c0.156-0.103,0.321-0.186,0.493-0.248
					c1.013-0.366,2.137,0.005,2.732,0.904c0.174,0.263,0.398,0.448,0.639,0.576l-1.757-4.286c-0.701-0.02-1.506-0.1-2.435-0.337
					c-3.403-0.865-4.326-4.526-4.109-6.631c0.144-1.391,0.93-2.859,2.072-3.94l-0.083-0.202c-0.236-0.575-0.234-1.207,0.006-1.781
					c0.24-0.574,0.689-1.019,1.265-1.255c0.024-0.011,0.066-0.027,0.107-0.042c1.168-0.422,2.454,0.154,2.929,1.313l0.052,0.127
					c1.55-0.112,3.104,0.257,4.459,1.072c1.1,0.662,1.456,2.094,0.795,3.194c-0.275,0.457-0.702,0.808-1.202,0.989
					c-0.655,0.237-1.372,0.17-1.971-0.182l1.229,2.999c0.579,0.038,1.264,0.133,2.042,0.361c2.794,0.816,4.503,2.742,4.941,5.569
					c0.336,2.171-0.485,4.49-2.076,6.037l0.09,0.219c0.236,0.575,0.234,1.208-0.006,1.781c-0.24,0.574-0.689,1.019-1.264,1.255
					C150.435,128.876,150.373,128.9,150.357,128.905z"/>
				<path style="fill:#FFDE4B;" d="M148.44,115.125c-0.945-0.276-1.752-0.339-2.506-0.338l-2.349-5.729
					c0.844-0.073,1.724,0.121,2.489,0.581c0.551,0.331,1.266,0.153,1.597-0.397c0.331-0.551,0.153-1.266-0.397-1.597
					c-1.401-0.842-3.052-1.11-4.595-0.796l-0.393-0.959c-0.244-0.595-0.923-0.89-1.518-0.635c-0.595,0.244-0.879,0.924-0.635,1.518
					l0.407,0.993c-1.366,0.973-2.188,2.479-2.315,3.71c-0.177,1.718,0.545,4.699,3.238,5.383c1.14,0.29,2.087,0.321,2.929,0.301
					l2.809,6.851c-1.203,0.157-2.643-0.128-3.442-1.335c-0.355-0.536-1.075-0.682-1.613-0.328c-0.536,0.355-0.683,1.077-0.328,1.613
					c1.448,2.188,4.093,2.748,6.286,2.255l0.387,0.943c0.237,0.579,0.888,0.864,1.471,0.653c0.015-0.006,0.031-0.012,0.047-0.018
					c0.595-0.244,0.879-0.924,0.635-1.518l-0.41-1c1.678-1.225,2.648-3.422,2.323-5.52
					C152.188,117.373,150.802,115.815,148.44,115.125z M142.035,114.602c-1.308-0.333-1.575-2.123-1.496-2.889
					c0.054-0.521,0.394-1.178,0.921-1.701l1.971,4.806C142.997,114.792,142.541,114.731,142.035,114.602z M150.257,120.111
					c0.161,1.037-0.237,2.14-0.954,2.894l-2.39-5.83c0.28,0.038,0.567,0.094,0.874,0.184
					C149.267,117.791,150.029,118.64,150.257,120.111z"/>
			</g>
		</g>
		<g>
			<g>
				<defs>
					<path id="XMLID_26_" d="M375.018,166.606c0.919-3.085,1.298-6.393,0.584-9.531c-1.039-4.569-4.332-8.395-8.282-10.916
						c-3.95-2.521-8.528-3.872-13.106-4.871c-0.822-0.179-1.669-0.349-2.5-0.216c-0.831,0.133-1.655,0.635-1.935,1.428
						c-0.38,1.075,0.322,2.213,1.049,3.092c2.127,2.574,4.773,4.718,7.734,6.263c-3.272-0.527-6.644-1.053-9.871-0.299
						c-1.11,0.259-2.329,0.819-2.618,1.921c-0.366,1.398,0.966,2.622,2.184,3.4c3.555,2.273,7.452,4.009,11.52,5.131
						c-1.41-0.106-2.853-0.209-4.218,0.161c-1.365,0.37-2.661,1.312-3.06,2.669c-0.595,2.021,0.925,4.03,2.51,5.419
						c3.006,2.634,6.645,4.541,10.522,5.513c2.018,0.506,4.854,0.606,6.165-1.304C373.222,172.24,374.253,169.176,375.018,166.606z"
						/>
				</defs>
				<use xlink:href="#XMLID_26_"  style="overflow:visible;fill:#FFE8CC;"/>
				<clipPath id="XMLID_00000114779655299711164620000012387641291107178381_">
					<use xlink:href="#XMLID_26_"  style="overflow:visible;"/>
				</clipPath>
				<path style="opacity:0.86;clip-path:url(#XMLID_00000114779655299711164620000012387641291107178381_);fill:#FFE8CC;" d="
					M356.57,170.1c-0.04-3.298,2.409-6.462,5.612-7.25c-3.341-2.056-6.434-4.517-9.188-7.312c-0.896-0.909-1.818-2.201-1.262-3.349
					c0.53-1.092,2.026-1.23,3.228-1.055c1.202,0.174,2.54,0.477,3.544-0.204c-3.236-0.352-5.576-4.177-4.415-7.218
					c1.16-3.041,5.454-4.335,8.101-2.442c-6.573-3.139-15.283-1.826-19.938,3.778c-3.592,4.325-4.401,10.525-2.966,15.961
					c1.435,5.435,4.878,10.164,8.951,14.038c1.951,1.856,4.136,3.588,6.722,4.338c1.542,0.447,8.151,0.599,6.347-2.354
					c-0.62-1.015-2.463-1.61-3.268-2.702C357.14,173.108,356.589,171.621,356.57,170.1z"/>
			</g>
			<g>
				<defs>
					<path id="XMLID_3_" d="M388.588,177.766c1.876-2.615,4.26-4.94,7.178-6.298c4.248-1.976,9.29-1.715,13.701-0.136
						c4.411,1.58,8.283,4.372,11.876,7.38c0.645,0.54,1.298,1.106,1.702,1.845c0.403,0.739,0.511,1.697,0.056,2.405
						c-0.617,0.959-1.947,1.1-3.087,1.064c-3.338-0.105-6.653-0.886-9.687-2.28c2.42,2.264,4.9,4.608,6.28,7.621
						c0.475,1.036,0.779,2.343,0.084,3.246c-0.881,1.145-2.664,0.841-4.025,0.355c-3.974-1.419-7.732-3.438-11.11-5.967
						c0.947,1.05,1.912,2.128,2.455,3.434c0.543,1.306,0.592,2.907-0.236,4.053c-1.234,1.708-3.753,1.736-5.821,1.334
						c-3.923-0.764-7.659-2.473-10.801-4.944c-1.636-1.286-3.451-3.467-2.743-5.673
						C385.233,182.637,387.025,179.945,388.588,177.766z"/>
				</defs>
				<use xlink:href="#XMLID_3_"  style="overflow:visible;fill:#FFE8CC;"/>
				<clipPath id="XMLID_00000085213188231381280810000008302073624272064175_">
					<use xlink:href="#XMLID_3_"  style="overflow:visible;"/>
				</clipPath>
				<path style="opacity:0.86;clip-path:url(#XMLID_00000085213188231381280810000008302073624272064175_);fill:#FFE8CC;" d="
					M397.121,194.492c2.632-1.987,3.634-5.862,2.296-8.876c3.672,1.383,7.511,2.321,11.406,2.787
					c1.267,0.152,2.854,0.09,3.421-1.053c0.539-1.088-0.268-2.355-1.142-3.198c-0.873-0.843-1.932-1.715-2.008-2.927
					c2.259,2.343,6.717,1.851,8.41-0.928c1.694-2.779,0.088-6.966-3.029-7.901c6.507,3.275,10.801,10.966,9.22,18.077
					c-1.22,5.488-5.627,9.924-10.803,12.118s-11.023,2.366-16.58,1.518c-2.662-0.406-5.369-1.073-7.546-2.659
					c-1.297-0.945-5.464-6.078-2.025-6.459c1.183-0.131,2.781,0.961,4.137,0.929C394.393,195.883,395.906,195.409,397.121,194.492z"
					/>
			</g>
			<g>
				
					<ellipse transform="matrix(0.9618 -0.2738 0.2738 0.9618 -36.6233 109.9014)" style="fill:#FFDE4B;" cx="375.478" cy="186.176" rx="19.035" ry="19.035"/>
				<path style="opacity:0.12;fill:#FDA928;" d="M384.695,202.836c-5.582,3.078-12.58,3.287-18.54-0.061
					c-9.167-5.15-12.42-16.757-7.272-25.92c2.348-4.179,6.036-7.129,10.225-8.61c-2.983,1.651-5.561,4.129-7.356,7.323
					c-5.148,9.163-1.893,20.765,7.275,25.916C374.007,204.281,379.707,204.596,384.695,202.836z"/>
				<path style="fill:#FDA928;" d="M388.553,193.522c-4.057,7.221-13.2,9.786-20.421,5.73c-7.221-4.057-9.786-13.2-5.73-20.421
					c4.057-7.221,13.2-9.786,20.421-5.729C390.045,177.158,392.61,186.301,388.553,193.522z"/>
				<g style="opacity:0.4;">
					<path style="fill:#FFDE4B;" d="M379.309,182.294c3.325-0.586,6.671-1.245,10.03-1.814c-0.446-1.087-1.013-2.128-1.709-3.092
						c-8.844,1.883-17.737,4.074-26.689,5.102c-0.301,1.183-0.449,2.384-0.457,3.578
						C366.802,185.119,373.02,183.402,379.309,182.294z"/>
					<path style="fill:#FFDE4B;" d="M384.088,187.328c2.123-0.484,4.249-0.953,6.377-1.416c-0.027-1.367-0.236-2.721-0.625-4.024
						c-3.907,0.626-7.836,1.158-11.707,1.834c-5.85,1.021-11.697,2.543-17.629,3.016c0.088,2.306,0.711,4.563,1.806,6.591
						C369.334,190.688,376.788,188.994,384.088,187.328z"/>
					<path style="fill:#FFDE4B;" d="M369.217,196.061c4.895-1.368,10.051-2.195,14.919-3.348c1.778-0.421,3.579-0.886,5.395-1.317
						c0.172-0.463,0.327-0.929,0.451-1.399c-2.277,0.485-4.553,0.977-6.827,1.477c-4.132,0.908-8.264,1.858-12.416,2.671
						c-2.244,0.439-4.702,1.153-7.084,1.255c0.482,0.62,1.024,1.2,1.609,1.744C366.552,196.686,367.875,196.342,369.217,196.061z"/>
				</g>
				<path style="opacity:0.5;fill:#FDA928;" d="M370.308,197.275c-0.999-0.561-1.375-1.802-0.856-2.824l0.04-0.08
					c-1.775-1.683-2.515-4.06-1.893-6.271c0.318-1.132,1.498-1.794,2.631-1.476c0.165,0.047,0.321,0.112,0.467,0.194
					c0.861,0.484,1.276,1.486,1.009,2.436c-0.078,0.279-0.073,0.544-0.017,0.788l1.921-3.785c-0.406-0.498-0.832-1.105-1.225-1.891
					c-1.438-2.878,0.55-5.711,2.14-6.821c1.051-0.733,2.541-1.067,3.974-0.922l0.091-0.178c0.258-0.508,0.698-0.885,1.239-1.062
					c0.542-0.177,1.12-0.132,1.628,0.126c0.022,0.011,0.058,0.029,0.094,0.049c0.992,0.557,1.362,1.795,0.843,2.818l-0.057,0.113
					c1.006,1.009,1.68,2.307,1.926,3.735c0.199,1.159-0.581,2.264-1.74,2.464c-0.481,0.083-0.98-0.003-1.406-0.242
					c-0.556-0.313-0.94-0.85-1.054-1.476l-1.344,2.648c0.32,0.424,0.664,0.956,0.972,1.633c1.107,2.427,0.794,4.765-0.905,6.762
					c-1.304,1.533-3.405,2.352-5.432,2.174l-0.098,0.194c-0.258,0.508-0.698,0.885-1.24,1.062c-0.542,0.177-1.12,0.132-1.628-0.126
					C370.375,197.311,370.321,197.282,370.308,197.275z"/>
				<path style="fill:#FFDE4B;" d="M378.72,187.693c-0.374-0.82-0.814-1.418-1.266-1.941l2.568-5.06
					c0.556,0.542,0.949,1.268,1.087,2.074c0.1,0.581,0.652,0.97,1.232,0.87c0.581-0.1,0.97-0.652,0.87-1.232
					c-0.254-1.476-1.057-2.782-2.199-3.664l0.43-0.847c0.267-0.525,0.065-1.173-0.468-1.434c-0.525-0.267-1.167-0.057-1.433,0.468
					l-0.445,0.877c-1.493-0.365-3.03-0.034-3.96,0.615c-1.298,0.906-2.934,3.192-1.796,5.47c0.482,0.964,1.027,1.64,1.545,2.212
					l-3.071,6.051c-0.829-0.741-1.494-1.91-1.135-3.187c0.159-0.567-0.171-1.155-0.738-1.315c-0.567-0.159-1.156,0.171-1.315,0.738
					c-0.651,2.315,0.545,4.485,2.2,5.711l-0.423,0.833c-0.26,0.511-0.068,1.133,0.428,1.412c0.013,0.007,0.027,0.015,0.04,0.022
					c0.525,0.267,1.167,0.057,1.434-0.468l0.448-0.883c1.855,0.431,3.96-0.212,5.22-1.693
					C379.405,191.639,379.656,189.745,378.72,187.693z M375.248,182.937c-0.553-1.107,0.53-2.364,1.108-2.767
					c0.393-0.274,1.053-0.432,1.732-0.38l-2.154,4.245C375.692,183.718,375.462,183.365,375.248,182.937z M376.349,191.939
					c-0.623,0.732-1.626,1.117-2.579,1.071l2.613-5.149c0.142,0.217,0.275,0.45,0.396,0.717
					C377.366,189.863,377.233,190.9,376.349,191.939z"/>
			</g>
		</g>
		<g>
			<g>
				<defs>
					<path id="XMLID_28_" d="M166.813,320.145c3.273-3.286,7.202-6.043,11.667-7.3c6.5-1.829,13.612-0.293,19.521,2.974
						c5.91,3.267,10.772,8.134,15.187,13.243c0.793,0.918,1.591,1.873,1.994,3.018c0.403,1.144,0.335,2.532-0.476,3.434
						c-1.1,1.222-3.024,1.115-4.637,0.8c-4.724-0.922-9.259-2.797-13.253-5.482c2.92,3.78,5.905,7.688,7.172,12.293
						c0.436,1.583,0.567,3.513-0.63,4.637c-1.518,1.426-3.984,0.581-5.808-0.425c-5.324-2.937-10.204-6.678-14.425-11.055
						c1.105,1.713,2.228,3.469,2.699,5.452c0.47,1.983,0.17,4.272-1.273,5.711c-2.15,2.144-5.74,1.602-8.588,0.552
						c-5.404-1.993-10.323-5.289-14.222-9.529c-2.029-2.207-4.108-5.729-2.591-8.704
						C160.915,326.297,164.086,322.883,166.813,320.145z"/>
				</defs>
				<use xlink:href="#XMLID_28_"  style="overflow:visible;fill:#FFE8CC;"/>
				<clipPath id="XMLID_00000101085249663723357120000003796243056076367795_">
					<use xlink:href="#XMLID_28_"  style="overflow:visible;"/>
				</clipPath>
				<path style="opacity:0.86;clip-path:url(#XMLID_00000101085249663723357120000003796243056076367795_);fill:#FFE8CC;" d="
					M175.086,345.909c4.203-2.219,6.525-7.498,5.318-12.095c4.903,2.816,10.148,5.037,15.581,6.601
					c1.767,0.509,4.038,0.788,5.109-0.708c1.019-1.423,0.163-3.412-0.885-4.813c-1.048-1.401-2.352-2.887-2.18-4.628
					c2.672,3.855,9.126,4.185,12.178,0.623c3.052-3.562,1.736-9.889-2.483-11.939c8.499,6.163,12.83,18.095,8.938,27.845
					c-3.004,7.524-10.299,12.816-18.168,14.74c-7.87,1.924-16.226,0.818-23.936-1.673c-3.693-1.193-7.389-2.767-10.119-5.526
					c-1.627-1.644-6.368-9.908-1.388-9.656c1.712,0.087,3.734,2.01,5.669,2.278C170.884,347.257,173.146,346.932,175.086,345.909z"
					/>
			</g>
			<g>
				<defs>
					<path id="XMLID_27_" d="M112.214,349.885c-4.18,2.011-8.074,4.816-10.728,8.62c-3.864,5.538-4.75,12.759-3.607,19.414
						c1.143,6.655,4.142,12.847,7.516,18.696c0.606,1.051,1.246,2.118,2.195,2.875c0.948,0.757,2.281,1.149,3.399,0.678
						c1.515-0.637,2.047-2.49,2.28-4.117c0.682-4.764,0.401-9.664-0.822-14.319c2.61,4,5.32,8.104,9.253,10.814
						c1.352,0.932,3.132,1.69,4.587,0.928c1.845-0.965,1.858-3.572,1.507-5.625c-1.024-5.994-2.953-11.832-5.7-17.257
						c1.255,1.606,2.544,3.245,4.262,4.341c1.718,1.096,3.979,1.565,5.813,0.675c2.731-1.326,3.399-4.895,3.344-7.93
						c-0.106-5.759-1.602-11.488-4.326-16.564c-1.418-2.642-4.061-5.763-7.369-5.308
						C119.963,346.337,115.696,348.21,112.214,349.885z"/>
				</defs>
				<use xlink:href="#XMLID_27_"  style="overflow:visible;fill:#FFE8CC;"/>
				<clipPath id="XMLID_00000014605731879523766210000010653493787712229761_">
					<use xlink:href="#XMLID_27_"  style="overflow:visible;"/>
				</clipPath>
				<path style="opacity:0.86;clip-path:url(#XMLID_00000014605731879523766210000010653493787712229761_);fill:#FFE8CC;" d="
					M133.828,366.166c-3.477,3.24-9.226,3.698-13.171,1.048c1.048,5.556,1.423,11.239,1.114,16.885
					c-0.101,1.836-0.583,4.073-2.347,4.593c-1.678,0.495-3.276-0.968-4.255-2.418c-0.979-1.45-1.953-3.171-3.655-3.58
					c2.762,3.79,0.953,9.995-3.414,11.706c-4.367,1.712-9.91-1.611-10.459-6.269c3.027,10.052,12.873,18.065,23.361,17.593
					c8.093-0.364,15.489-5.514,19.892-12.315s6.105-15.056,6.287-23.156c0.087-3.88-0.185-7.888-1.894-11.373
					c-1.018-2.077-7.265-9.271-8.664-4.484c-0.481,1.646,0.672,4.188,0.288,6.103C136.482,362.641,135.432,364.671,133.828,366.166z
					"/>
			</g>
			<g>
				
					<ellipse transform="matrix(0.5098 -0.8603 0.8603 0.5098 -220.4181 291.9913)" style="fill:#FFDE4B;" cx="146.025" cy="339.421" rx="27.433" ry="27.433"/>
				<path style="opacity:0.12;fill:#FDA928;" d="M173.198,343.23c-1.289,9.096-7.108,17.338-16.126,21.304
					c-13.872,6.1-30.059-0.204-36.156-14.069c-2.781-6.324-2.985-13.126-1.063-19.235c-0.681,4.866-0.059,9.982,2.066,14.815
					c6.097,13.865,22.281,20.162,36.153,14.062C165.605,356.794,170.905,350.501,173.198,343.23z"/>
				
					<ellipse transform="matrix(0.7071 -0.7071 0.7071 0.7071 -197.2373 202.6692)" style="fill:#FDA928;" cx="146.025" cy="339.421" rx="21.613" ry="21.613"/>
				<g style="opacity:0.4;">
					<path style="fill:#FFDE4B;" d="M144.87,331.645c2.204-4.337,4.343-8.763,6.596-13.125c-1.639-0.427-3.329-0.676-5.042-0.709
						c-5.49,11.818-10.667,23.96-17.236,35.162c1.102,1.371,2.357,2.582,3.726,3.625C137.294,348.5,140.7,339.85,144.87,331.645z"/>
					<path style="fill:#FFDE4B;" d="M154.808,330.5c1.281-2.865,2.582-5.72,3.891-8.572c-1.598-1.153-3.339-2.085-5.177-2.764
						c-2.663,5.043-5.451,10.029-8.026,15.073c-3.89,7.622-7.2,15.676-11.792,22.919c2.732,1.895,5.872,3.133,9.157,3.628
						C145.902,350.405,150.405,340.353,154.808,330.5z"/>
					<path style="fill:#FFDE4B;" d="M151.989,355.194c2.663-6.824,6.175-13.478,9.063-20.086c1.055-2.413,2.079-4.89,3.155-7.355
						c-0.384-0.599-0.787-1.181-1.221-1.731c-1.414,3.043-2.817,6.091-4.211,9.143c-2.533,5.546-5.017,11.129-7.675,16.615
						c-1.437,2.965-2.743,6.415-4.689,9.247c1.132-0.018,2.269-0.141,3.403-0.343C150.402,358.805,151.15,356.982,151.989,355.194z"
						/>
				</g>
				<path style="opacity:0.5;fill:#FDA928;" d="M154.333,354.987c-1.512,0.665-3.267,0.024-3.995-1.459l-0.057-0.115
					c-3.475,0.588-6.855-0.619-8.863-3.25c-1.029-1.347-0.769-3.28,0.578-4.309c0.196-0.149,0.407-0.273,0.628-0.37
					c1.303-0.573,2.816-0.183,3.68,0.948c0.253,0.332,0.564,0.555,0.893,0.702l-2.697-5.491c-0.925,0.036-1.994,0.002-3.239-0.227
					c-4.56-0.837-6.103-5.579-6.004-8.372c0.066-1.845,0.971-3.85,2.379-5.376l-0.127-0.259c-0.362-0.736-0.415-1.57-0.15-2.347
					c0.265-0.777,0.817-1.404,1.554-1.766c0.031-0.016,0.084-0.042,0.138-0.065c1.501-0.66,3.247-0.015,3.976,1.469l0.08,0.163
					c2.033-0.285,4.112,0.062,5.97,1.016c1.508,0.774,2.105,2.63,1.331,4.138c-0.321,0.626-0.853,1.127-1.496,1.41
					c-0.842,0.37-1.793,0.346-2.613-0.064l1.887,3.842c0.766-0.001,1.677,0.064,2.723,0.294c3.754,0.827,6.177,3.212,7.006,6.898
					c0.636,2.83-0.239,5.96-2.199,8.14l0.138,0.281c0.362,0.737,0.416,1.57,0.15,2.348c-0.265,0.777-0.817,1.404-1.554,1.766
					C154.432,354.942,154.352,354.979,154.333,354.987z"/>
				<path style="fill:#FFDE4B;" d="M150.58,337c-1.269-0.28-2.338-0.29-3.333-0.222l-3.605-7.34
					c1.106-0.171,2.283,0.005,3.331,0.544c0.755,0.388,1.682,0.089,2.069-0.666c0.388-0.755,0.089-1.682-0.666-2.069
					c-1.921-0.986-4.12-1.191-6.125-0.64l-0.604-1.229c-0.374-0.762-1.295-1.09-2.057-0.702c-0.762,0.374-1.076,1.295-0.702,2.057
					l0.625,1.272c-1.713,1.403-2.662,3.461-2.721,5.094c-0.081,2.28,1.136,6.143,4.745,6.806c1.528,0.28,2.778,0.237,3.886,0.136
					l4.311,8.777c-1.571,0.314-3.494,0.067-4.654-1.453c-0.515-0.674-1.478-0.803-2.154-0.289c-0.674,0.515-0.804,1.48-0.289,2.154
					c2.103,2.755,5.638,3.257,8.484,2.412l0.594,1.209c0.364,0.742,1.247,1.06,1.997,0.73c0.02-0.009,0.04-0.018,0.06-0.028
					c0.762-0.374,1.076-1.295,0.702-2.057l-0.629-1.282c2.102-1.764,3.185-4.745,2.57-7.48
					C155.718,339.628,153.754,337.699,150.58,337z M142.094,336.881c-1.753-0.322-2.264-2.657-2.228-3.673
					c0.024-0.691,0.414-1.587,1.063-2.324l3.024,6.158C143.378,337.045,142.772,337.005,142.094,336.881z M153.418,343.409
					c0.304,1.352-0.121,2.841-0.999,3.898l-3.668-7.469c0.372,0.025,0.756,0.074,1.168,0.164
					C151.907,340.44,152.986,341.49,153.418,343.409z"/>
			</g>
		</g>
	</g>
</g>
</svg>
